<?xml version="1.0" encoding="utf-8"?>
<!-- Generator: Adobe Illustrator 18.0.0, SVG Export Plug-In . SVG Version: 6.00 Build 0)  -->
<!DOCTYPE svg PUBLIC "-//W3C//DTD SVG 1.1//EN" "http://www.w3.org/Graphics/SVG/1.1/DTD/svg11.dtd">
<svg version="1.1" id="Layer_1" xmlns="http://www.w3.org/2000/svg" xmlns:xlink="http://www.w3.org/1999/xlink" x="0px" y="0px"
	 viewBox="0 0 666 390" enable-background="new 0 0 666 390" xml:space="preserve">
<path fill="#EEF0F2" d="M223.2,349.7c1.1-0.3,2.1-0.7,3.1-1.1c1-0.5,2-1,2.8-1.6c0.9-0.6,1.7-1.4,2.5-2.1c0.8-0.8,1.4-1.6,2-2.5
	c0.6-0.9,1.2-1.8,1.6-2.8c0.5-1,0.8-2,1.1-3c0.3-1,0.5-2.1,0.6-3.2c0.1-1.1,0.3-2.1,0.2-3.2c-0.1-1.1-0.5-2.1-0.8-3.2
	c-0.4-1.5-0.4-1.6-0.8-3.1c-0.4-1.5-0.3-1.6-0.7-3.1c-0.4-1.5-0.5-1.5-0.9-3.1c-0.4-1.5-0.2-1.6-0.6-3.1c-0.4-1.5-0.5-1.5-0.9-3.1
	c-0.4-1.5-0.3-1.6-0.7-3.1c-0.4-1.5-0.4-1.5-0.8-3.1c-0.4-1.5-0.4-1.5-0.8-3.1c-0.4-1.5-0.6-1.5-1-3.1c-0.4-1.5-0.3-1.6-0.7-3.1
	c-0.4-1.5-0.3-1.6-0.7-3.1c-0.4-1.5-0.5-1.5-0.9-3.1c-0.4-1.5-0.5-1.5-0.9-3.1c-0.4-1.5-0.3-1.6-0.7-3.1c-0.4-1.5-0.5-1.5-0.9-3.1
	c-0.4-1.5-0.5-1.5-0.9-3.1c-0.4-1.5-0.2-1.6-0.6-3.2c-0.4-1.5-0.5-1.5-0.9-3.1c-0.4-1.5-0.5-1.5-0.9-3.1c-0.4-1.5-0.4-1.6-0.8-3.1
	c-0.4-1.5-0.3-1.6-0.7-3.1c-0.4-1.5-0.4-1.5-0.8-3.1c-0.4-1.5-0.4-1.6-0.8-3.1c-0.4-1.5-0.5-1.5-0.9-3.1c-0.4-1.5-0.4-1.5-0.8-3.1
	c-0.4-1.5-0.4-1.5-0.8-3.1c-0.4-1.5-0.5-1.5-0.9-3.1c-0.4-1.5-0.2-1.6-0.6-3.1c-0.4-1.5-0.4-1.5-0.8-3.1c-0.4-1.5-0.5-1.5-0.9-3.1
	c-0.4-1.5-0.3-1.6-0.7-3.1c-0.4-1.5-0.5-1.5-0.9-3.1c-0.4-1.5-0.3-1.6-0.7-3.1c-0.4-1.5-0.4-1.5-0.8-3.1c-0.4-1.5-0.6-1.5-1-3.1
	c-0.4-1.5-0.2-1.6-0.6-3.1c-0.4-1.5-0.5-1.5-0.9-3.1c-0.4-1.5-0.5-1.5-0.9-3.1c-0.4-1.5-0.4-1.6-0.8-3.1c-0.4-1.5-0.4-1.6-0.8-3.1
	c-0.4-1.5-0.4-1.5-0.8-3.1c-0.4-1.5-0.4-1.5-0.8-3.1c-0.4-1.5-0.2-1.6-0.6-3.1c-0.4-1.5-0.5-1.5-0.9-3.1c-0.4-1.5-0.4-1.5-0.8-3.1
	c-0.4-1.5-0.3-1.6-0.7-3.1c-0.4-1.5-0.4-1.5-0.8-3.1c-0.4-1.5-0.3-1.6-0.7-3.1c-0.4-1.5-0.5-1.5-0.9-3.1c-0.4-1.5-0.5-1.5-0.9-3.1
	c-0.4-1.5-0.4-1.5-0.8-3.1c-0.4-1.5-0.3-1.6-0.7-3.1c-0.4-1.5-0.5-1.5-0.9-3.1c-0.4-1.5-0.4-1.5-0.8-3.1c-0.4-1.5-0.4-1.6-0.8-3.1
	c-0.4-1.6-0.3-1.6-0.7-3.1c-0.4-1.6-0.4-1.6-0.8-3.1c-0.4-1.6-0.6-1.5-1-3.1c-0.4-1.6-0.3-1.6-0.7-3.1c-0.4-1.5-0.5-1.5-0.9-3.1
	c-0.4-1.6-0.5-1.5-0.9-3.1c-0.4-1.6-0.4-1.6-0.8-3.1c-0.4-1.6-0.3-1.6-0.7-3.1c-0.3-1.1-0.8-2-1.2-3c-0.5-1-1-1.9-1.6-2.8
	c-0.6-0.9-1.3-1.7-2-2.5c-0.8-0.8-1.5-1.6-2.4-2.2c-0.9-0.6-1.9-1.1-2.8-1.6c-1-0.5-2-0.9-3-1.2c-1-0.3-2.1-0.3-3.2-0.4
	c-1.1-0.1-2.2-0.2-3.3-0.1c1.1,0.2,2.3,0.6,3.3,1.1c1,0.4,2.1,0.8,3.1,1.4c0.9,0.6,1.7,1.5,2.5,2.2c0.8,0.8,1.7,1.5,2.4,2.4
	c0.7,0.9,1.1,2,1.6,3c0.5,1,1,2,1.3,3.1c0.4,1.5,0.3,1.6,0.7,3.1c0.4,1.5,0.5,1.5,0.9,3.1c0.4,1.5,0.4,1.5,0.9,3.1
	c0.4,1.5,0.4,1.6,0.8,3.1c0.4,1.5,0.5,1.5,0.9,3.1c0.4,1.5,0.2,1.6,0.6,3.1c0.4,1.5,0.6,1.5,1,3c0.4,1.5,0.3,1.6,0.7,3.1
	c0.4,1.5,0.4,1.6,0.8,3.1c0.4,1.5,0.4,1.6,0.8,3.1c0.4,1.5,0.4,1.5,0.8,3.1c0.4,1.5,0.5,1.5,0.9,3.1c0.4,1.5,0.5,1.5,0.9,3.1
	c0.4,1.5,0.4,1.5,0.8,3.1c0.4,1.5,0.4,1.6,0.8,3.1c0.4,1.5,0.4,1.5,0.9,3.1c0.4,1.5,0.5,1.5,0.9,3.1c0.4,1.5,0.3,1.6,0.7,3.1
	c0.4,1.5,0.5,1.5,0.9,3.1c0.4,1.5,0.3,1.6,0.7,3.1c0.4,1.5,0.5,1.5,0.9,3.1c0.4,1.5,0.6,1.5,1,3.1c0.4,1.5,0.3,1.6,0.7,3.1
	c0.4,1.5,0.4,1.5,0.8,3.1c0.4,1.5,0.4,1.5,0.8,3.1c0.4,1.5,0.5,1.5,0.9,3.1c0.4,1.5,0.4,1.5,0.9,3.1c0.4,1.5,0.4,1.6,0.8,3.1
	c0.4,1.5,0.4,1.5,0.8,3.1c0.4,1.5,0.5,1.5,0.9,3.1c0.4,1.5,0.3,1.6,0.7,3.1c0.4,1.5,0.4,1.5,0.8,3.1c0.4,1.5,0.4,1.6,0.8,3.1
	c0.4,1.5,0.5,1.5,0.9,3.1c0.4,1.5,0.5,1.5,0.9,3.1c0.4,1.5,0.3,1.6,0.7,3.1c0.4,1.5,0.4,1.5,0.8,3.1c0.4,1.5,0.5,1.5,0.9,3.1
	c0.4,1.5,0.4,1.6,0.8,3.1c0.4,1.5,0.4,1.6,0.8,3.1c0.4,1.5,0.4,1.5,0.9,3.1c0.4,1.5,0.4,1.6,0.8,3.1c0.4,1.5,0.5,1.5,0.9,3.1
	c0.4,1.5,0.4,1.6,0.8,3.1c0.4,1.5,0.4,1.5,0.8,3.1c0.4,1.5,0.3,1.6,0.7,3.1c0.4,1.5,0.5,1.5,0.9,3.1c0.4,1.5,0.3,1.6,0.7,3.1
	c0.4,1.5,0.5,1.5,0.9,3.1c0.4,1.5,0.3,1.6,0.8,3.1c0.4,1.5,0.5,1.5,0.9,3.1c0.4,1.5,0.4,1.5,0.8,3.1c0.4,1.5,0.4,1.5,0.8,3.1
	c0.4,1.5,0.3,1.6,0.8,3.1c0.4,1.5,0.5,1.5,1,3.1c0.4,1.5,0.3,1.6,0.7,3.1c0.4,1.5,0.4,1.6,0.8,3.1c0.4,1.5,0.5,1.5,0.9,3.1
	c0.4,1.5,0.4,1.5,0.8,3.1c0.4,1.5,0.4,1.6,0.8,3.1c0.4,1.5,0.5,1.5,1,3.1c0.4,1.5,0.4,1.6,0.8,3.1s0.4,1.5,0.9,3.1
	c0.3,1.1,0.4,2.1,0.5,3.2c0.1,1.1,0,2.2-0.1,3.2c-0.1,1.1-0.3,2.1-0.6,3.2c-0.3,1-0.6,2.1-1,3.1c-0.5,1-1,1.9-1.6,2.8
	c-0.6,0.9-1.3,1.8-2,2.5c-0.8,0.8-1.7,1.4-2.5,2c-0.9,0.6-1.8,1.1-2.8,1.6c-1,0.4-2,0.8-3,1.1c-1.5,0.4-1.5,0.4-3.1,0.8
	c-1.5,0.4-1.5,0.6-3,1c-1.5,0.4-1.6,0.3-3.1,0.7c-1.5,0.4-1.5,0.4-3.1,0.8c-1.5,0.4-1.5,0.6-3,1c-1.5,0.4-1.5,0.4-3.1,0.8
	c-1.5,0.4-1.6,0.3-3.1,0.7c-1.5,0.4-1.5,0.4-3.1,0.8c-1.5,0.4-1.5,0.5-3,0.9c-1.5,0.4-1.5,0.5-3,0.9c-1.5,0.4-1.5,0.4-3.1,0.8
	c-1.5,0.4-1.6,0.3-3.1,0.7c-1.5,0.4-1.5,0.3-3.1,0.8c-1.5,0.4-1.5,0.5-3,0.9c-1.5,0.4-1.6,0.3-3.1,0.7c-1.5,0.4-1.5,0.5-3,0.9
	c-1.5,0.4-1.6,0.3-3.1,0.7c-1.5,0.4-1.5,0.6-3,1c-1.5,0.4-1.5,0.4-3.1,0.8c-1.5,0.4-1.5,0.4-3.1,0.8c-1.5,0.4-1.5,0.3-3.1,0.8
	c-1.5,0.4-1.5,0.6-3,1c-1.5,0.4-1.5,0.4-3.1,0.9c-1.5,0.4-1.6,0.2-3.1,0.6c-1.5,0.4-1.5,0.5-3,0.9c-1.5,0.4-1.6,0.3-3.1,0.8
	c-1.5,0.4-1.5,0.4-3.1,0.8c-1.5,0.4-1.5,0.5-3.1,0.9c-1.5,0.4-1.5,0.4-3.1,0.8c-1.5,0.4-1.5,0.5-3,0.9c-1.5,0.4-1.5,0.5-3.1,0.9
	c-1.5,0.4-1.6,0.3-3.1,0.8c-1.5,0.4-1.6,0.3-3.1,0.7c-1.5,0.4-1.5,0.4-3.1,0.8c-1.5,0.4-1.5,0.5-3,0.9c-1.5,0.4-1.6,0.3-3.1,0.7
	c-1.5,0.4-1.5,0.6-3,1c-1.5,0.4-1.6,0.2-3.1,0.7c-1.5,0.4-1.5,0.4-3.1,0.8c-1.5,0.4-1.5,0.4-3.1,0.8c-1.5,0.4-1.5,0.5-3.1,0.9
	c-1.5,0.4-1.5,0.5-3,1c-1.5,0.4-1.5,0.4-3.1,0.8c-1.5,0.4-1.5,0.5-3.1,0.9c-1.5,0.4-1.6,0.2-3.1,0.6c-1.5,0.4-1.5,0.4-3.1,0.8
	c-0.4,0.1-0.7,0.3-1.1,0.4c1.5,0,2.9-0.3,4.4-0.7c1.5-0.4,1.5-0.4,3.1-0.8c1.5-0.4,1.6-0.2,3.1-0.6c1.5-0.4,1.5-0.4,3.1-0.8
	c1.5-0.4,1.5-0.6,3-0.9c1.5-0.4,1.6-0.3,3.1-0.7c1.5-0.4,1.6-0.3,3.1-0.7c1.5-0.4,1.5-0.4,3.1-0.8c1.5-0.4,1.5-0.5,3-0.9
	c1.5-0.4,1.5-0.3,3.1-0.7c1.5-0.4,1.5-0.3,3.1-0.7c1.5-0.4,1.5-0.4,3.1-0.8c1.5-0.4,1.5-0.5,3-0.9c1.5-0.4,1.6-0.2,3.1-0.6
	c1.5-0.4,1.5-0.5,3-0.9c1.5-0.4,1.5-0.4,3.1-0.8c1.5-0.4,1.5-0.4,3.1-0.8c1.5-0.4,1.5-0.5,3-0.9c1.5-0.4,1.6-0.3,3.1-0.7
	c1.5-0.4,1.5-0.4,3.1-0.8c1.5-0.4,1.5-0.4,3.1-0.8c1.5-0.4,1.5-0.4,3.1-0.8c1.5-0.4,1.5-0.5,3-0.9c1.5-0.4,1.5-0.3,3.1-0.7
	c1.5-0.4,1.6-0.3,3.1-0.7c1.5-0.4,1.5-0.6,3-1c1.5-0.4,1.5-0.4,3.1-0.8c1.5-0.4,1.6-0.2,3.1-0.6c1.5-0.4,1.5-0.5,3-0.9
	c1.5-0.4,1.6-0.3,3.1-0.7c1.5-0.4,1.5-0.6,3-1c1.5-0.4,1.6-0.3,3.1-0.7c1.5-0.4,1.5-0.4,3.1-0.8c1.5-0.4,1.5-0.5,3-0.9
	c1.5-0.4,1.6-0.2,3.1-0.6c1.5-0.4,1.5-0.4,3.1-0.8c1.5-0.4,1.5-0.4,3.1-0.8c1.5-0.4,1.5-0.5,3.1-0.9c1.5-0.4,1.5-0.4,3.1-0.8
	c1.5-0.4,1.5-0.4,3.1-0.8c1.5-0.4,1.5-0.5,3.1-0.9c1.5-0.4,1.5-0.4,3.1-0.8c1.5-0.4,1.5-0.4,3.1-0.8c1.5-0.4,1.6-0.3,3.1-0.7
	c1.5-0.4,1.5-0.5,3.1-0.9c1.5-0.4,1.5-0.4,3.1-0.8C221.6,350.1,221.7,350.1,223.2,349.7z"/>
<g>
	<path fill="#FAFDFF" d="M232.9,326.5c2.6,9.7-3.1,19.6-12.8,22.2l-141.8,38c-9.7,2.6-19.6-3.1-22.2-12.8L3.6,178.3
		c-2.6-9.7,3.1-19.6,12.8-22.2l141.8-38c9.7-2.6,19.6,3.1,22.2,12.8L232.9,326.5z"/>
	<path fill="#99AABF" d="M73.8,387.7c-8.6,0-16.2-5.8-18.4-14.1L3.3,178.9c-2.7-10.1,3.3-20.6,13.5-23.3l141-37.8
		c1.6-0.4,3.3-0.7,4.9-0.7c8.6,0,16.2,5.8,18.4,14.1L233.2,326c2.7,10.1-3.3,20.6-13.5,23.3l-141,37.8
		C77.2,387.5,75.5,387.7,73.8,387.7z M162.7,118.1c-1.6,0-3.2,0.2-4.7,0.6L17,156.5C7.4,159.1,1.7,169,4.2,178.6l52.2,194.7
		c2.1,7.9,9.3,13.4,17.4,13.4c1.6,0,3.2-0.2,4.7-0.6l141-37.8c9.6-2.6,15.3-12.5,12.8-22.1l-52.2-194.7
		C178,123.6,170.8,118.1,162.7,118.1z"/>
</g>
<path fill="#EEF0F2" d="M657.2,144.3c2,1.9,3,4.7,2.5,7.6l-19,107.7c-0.8,4.6-5.2,7.7-9.8,6.9l-42.4-7.5c-0.4-0.1-0.8-0.2-1.2-0.3
	c1.2,1.1,2.6,1.9,4.3,2.2l42.4,7.5c4.6,0.8,9-2.3,9.8-6.9l19-107.7C663.6,149.6,661.1,145.6,657.2,144.3z"/>
<g>
	<path fill="#99AABF" d="M605.3,152.1c-0.1,0.7-0.8,1.1-1.4,1l-4.7-0.8c-0.7-0.1-1.1-0.8-1-1.4l0.5-2.9c0.1-0.7,0.8-1.1,1.4-1
		l4.7,0.8c0.7,0.1,1.1,0.8,1,1.4L605.3,152.1z"/>
	<g>
		<path fill="#99AABF" d="M604.1,153.6c-0.1,0-0.2,0-0.3,0l-4.7-0.8c-0.5-0.1-0.9-0.3-1.1-0.7c-0.3-0.4-0.4-0.8-0.3-1.3l0.5-2.9
			c0.2-0.9,1.1-1.6,2-1.4l4.7,0.8c0.9,0.2,1.6,1.1,1.4,2l-0.5,2.9C605.7,153,604.9,153.6,604.1,153.6z M600,147.4
			c-0.4,0-0.7,0.3-0.7,0.6l-0.5,2.9c0,0.2,0,0.4,0.1,0.6c0.1,0.2,0.3,0.3,0.5,0.3l4.7,0.8c0.4,0.1,0.8-0.2,0.9-0.6l0.5-2.9
			c0.1-0.4-0.2-0.8-0.6-0.9l-4.7-0.8C600,147.4,600,147.4,600,147.4z"/>
	</g>
</g>
<g>
	<path fill="#99AABF" d="M602.6,167.7c-0.1,0.7-0.8,1.1-1.4,1l-4.6-0.8c-0.7-0.1-1.1-0.8-1-1.4l1.2-7c0.1-0.7,0.8-1.1,1.4-1l4.6,0.8
		c0.7,0.1,1.1,0.8,1,1.4L602.6,167.7z"/>
	<g>
		<path fill="#99AABF" d="M601.4,169.3c-0.1,0-0.2,0-0.3,0l-4.6-0.8c-0.5-0.1-0.9-0.3-1.1-0.7c-0.3-0.4-0.4-0.8-0.3-1.3l1.2-7
			c0.2-0.9,1-1.6,2-1.4l4.6,0.8c0.5,0.1,0.9,0.3,1.1,0.7c0.3,0.4,0.4,0.8,0.3,1.3l-1.2,7C603,168.7,602.3,169.3,601.4,169.3z
			 M598,159c-0.4,0-0.7,0.3-0.7,0.6l-1.2,7c0,0.2,0,0.4,0.1,0.6s0.3,0.3,0.5,0.3l4.6,0.8c0.4,0.1,0.8-0.2,0.9-0.6l1.2-7
			c0-0.2,0-0.4-0.1-0.6c-0.1-0.2-0.3-0.3-0.5-0.3l-4.6-0.8C598.1,159,598.1,159,598,159z"/>
	</g>
</g>
<g>
	<path fill="#99AABF" d="M655.9,177.1c-0.2,1-1.1,1.7-2.1,1.5l-3.4-0.6c-1-0.2-1.7-1.1-1.5-2.1l1-5.7c0.2-1,1.1-1.7,2.1-1.5l3.4,0.6
		c1,0.2,1.7,1.1,1.5,2.1L655.9,177.1z"/>
	<g>
		<path fill="#99AABF" d="M654.1,179.1c-0.1,0-0.3,0-0.4,0l-3.4-0.6c-1.3-0.2-2.1-1.4-1.9-2.7l1-5.7c0.2-1.3,1.4-2.1,2.7-1.9
			l3.4,0.6c1.3,0.2,2.1,1.4,1.9,2.7l-1,5.7C656.2,178.3,655.2,179.1,654.1,179.1z M651.7,169.1c-0.7,0-1.2,0.5-1.3,1.1l-1,5.7
			c-0.1,0.7,0.4,1.4,1.1,1.6l3.4,0.6c0.8,0.1,1.4-0.4,1.6-1.1l1-5.7c0.1-0.7-0.4-1.4-1.1-1.6l-3.4-0.6
			C651.8,169.1,651.8,169.1,651.7,169.1z"/>
	</g>
</g>
<g>
	<path fill="#99AABF" d="M600.6,179.7c-0.1,0.7-0.8,1.1-1.4,1l-4.6-0.8c-0.7-0.1-1.1-0.8-1-1.4l1.2-7c0.1-0.7,0.8-1.1,1.4-1l4.6,0.8
		c0.7,0.1,1.1,0.8,1,1.4L600.6,179.7z"/>
	<g>
		<path fill="#99AABF" d="M599.4,181.2c-0.1,0-0.2,0-0.3,0l-4.6-0.8c-0.9-0.2-1.6-1.1-1.4-2l1.2-7c0.2-0.9,1.1-1.6,2-1.4l4.6,0.8
			c0.9,0.2,1.6,1.1,1.4,2l-1.2,7C600.9,180.6,600.2,181.2,599.4,181.2z M596,171c-0.4,0-0.7,0.3-0.7,0.6l-1.2,7
			c-0.1,0.4,0.2,0.8,0.6,0.9l4.6,0.8c0.4,0.1,0.8-0.2,0.9-0.6l1.2-7c0.1-0.4-0.2-0.8-0.6-0.9l-4.6-0.8C596,171,596,171,596,171z"/>
	</g>
</g>
<path fill="#EEF0F2" d="M551.3,109.2c2,2,3.2,4.8,3.2,7.8V310c0,6.1-5,11.1-11.1,11.1h-116c-1,0-2-0.3-2.8-0.9l-1.8-1.2
	c-0.8-0.6-1.8-0.9-2.8-0.9h-40.2c-1,0-2,0.3-2.8,0.9l-1.8,1.2c-0.8,0.6-1.8,0.9-2.8,0.9h-116c-1.5,0-2.9-0.3-4.2-0.8
	c2,2,4.8,3.3,7.9,3.3h116c1,0,2-0.3,2.8-0.9l1.8-1.2c0.8-0.6,1.8-0.9,2.8-0.9h40.2c1,0,2,0.3,2.8,0.9l1.8,1.2
	c0.8,0.6,1.8,0.9,2.8,0.9h116c6.1,0,11.1-5,11.1-11.1V119.5C558.2,114.8,555.4,110.8,551.3,109.2z"/>
<g>
	<path fill="#FAFDFF" d="M640.8,259.7c-0.8,4.6-5.2,7.7-9.8,6.9l-42.4-7.5c-4.6-0.8-7.7-5.2-6.9-9.8l19-107.7
		c0.8-4.6,5.2-7.7,9.8-6.9l42.4,7.5c4.6,0.8,7.7,5.2,6.9,9.8L640.8,259.7z"/>
	<path fill="#99AABF" d="M632.4,267.1c-0.5,0-1,0-1.6-0.1l-42.4-7.5c-2.4-0.4-4.4-1.7-5.8-3.7c-1.4-2-1.9-4.3-1.5-6.7l19-107.7
		c0.8-4.3,4.5-7.4,8.8-7.4c0.5,0,1,0,1.6,0.1l42.4,7.5c2.4,0.4,4.4,1.7,5.8,3.7c1.4,2,1.9,4.3,1.5,6.7l-19,107.7
		C640.5,264,636.8,267.1,632.4,267.1z M609,135c-3.9,0-7.2,2.8-7.8,6.6l-19,107.7c-0.4,2.1,0.1,4.2,1.3,5.9c1.2,1.7,3,2.9,5.1,3.3
		l42.4,7.5c0.5,0.1,0.9,0.1,1.4,0.1c3.9,0,7.2-2.8,7.8-6.6l19-107.7c0.4-2.1-0.1-4.2-1.3-5.9c-1.2-1.7-3-2.9-5.1-3.3l-42.4-7.5
		C609.9,135.1,609.5,135,609,135z"/>
</g>
<g>
	<path fill="#FAFDFF" d="M554.5,117c0-6.1-5-11.1-11.1-11.1H256.5c-6.1,0-11.1,5-11.1,11.1V310c0,6.1,5,11.1,11.1,11.1h116
		c1,0,2-0.3,2.8-0.9l1.8-1.2c0.8-0.6,1.8-0.9,2.8-0.9H420c1,0,2,0.3,2.8,0.9l1.8,1.2c0.8,0.6,1.8,0.9,2.8,0.9h116
		c6.1,0,11.1-5,11.1-11.1V117z M537.6,228.4c0,2.4-1.9,4.3-4.3,4.3H267.3c-2.4,0-4.3-1.9-4.3-4.3V122c0-2.4,1.9-4.3,4.3-4.3h265.9
		c2.4,0,4.3,1.9,4.3,4.3V228.4z"/>
	<path fill="#99AABF" d="M543.4,321.6h-116c-1.1,0-2.2-0.3-3.1-1l-1.8-1.2c-0.7-0.5-1.6-0.8-2.5-0.8h-40.2c-0.9,0-1.8,0.3-2.5,0.8
		l-1.8,1.2c-0.9,0.6-2,1-3.1,1h-116c-6.4,0-11.6-5.2-11.6-11.6V117c0-6.4,5.2-11.6,11.6-11.6h286.9c6.4,0,11.6,5.2,11.6,11.6V310
		C555,316.4,549.8,321.6,543.4,321.6z M379.8,317.6H420c1.1,0,2.2,0.3,3.1,1l1.8,1.2c0.7,0.5,1.6,0.8,2.5,0.8h116
		c5.9,0,10.6-4.8,10.6-10.6V117c0-5.9-4.8-10.6-10.6-10.6H256.5c-5.9,0-10.6,4.8-10.6,10.6V310c0,5.9,4.8,10.6,10.6,10.6h116
		c0.9,0,1.8-0.3,2.5-0.8l1.8-1.2C377.7,317.9,378.7,317.6,379.8,317.6z M533.2,233.2H267.3c-2.7,0-4.8-2.2-4.8-4.8V122
		c0-2.7,2.2-4.8,4.8-4.8h265.9c2.7,0,4.8,2.2,4.8,4.8v106.4C538.1,231,535.9,233.2,533.2,233.2z M267.3,118.2
		c-2.1,0-3.8,1.7-3.8,3.8v106.4c0,2.1,1.7,3.8,3.8,3.8h265.9c2.1,0,3.8-1.7,3.8-3.8V122c0-2.1-1.7-3.8-3.8-3.8H267.3z"/>
</g>
<g>
	<path fill="#FAFDFF" d="M555.5,102.2c-0.9,2.4-3.2,4.1-5.8,4.1H248.9c-2.5,0-4.7-1.5-5.7-3.8l-38.1-90.3c-0.8-1.9-0.6-4.1,0.5-5.8
		s3.1-2.8,5.2-2.8h371.5c2,0,3.9,1,5.1,2.6s1.4,3.8,0.8,5.7L555.5,102.2z"/>
	<path fill="#99AABF" d="M549.7,106.7H248.9c-2.7,0-5.1-1.6-6.2-4.1l-38.1-90.3c-0.9-2.1-0.7-4.4,0.6-6.3c1.2-1.9,3.3-3,5.6-3h371.5
		c2.2,0,4.2,1.1,5.5,2.8c1.2,1.8,1.6,4.1,0.8,6.1L556,102.3C555,105,552.5,106.7,549.7,106.7z M210.8,4.1c-1.9,0-3.7,1-4.7,2.5
		c-1.1,1.6-1.2,3.6-0.5,5.4l38.1,90.3c0.9,2.1,2.9,3.5,5.2,3.5h300.8c2.4,0,4.5-1.5,5.4-3.8l32.6-90.3C588.3,10,588,8,587,6.5
		c-1.1-1.5-2.8-2.4-4.7-2.4H210.8z"/>
</g>
<g>
	<polygon fill="#FFFFFF" points="540,98.2 258.7,98.2 225.9,14.7 567.3,14.7 	"/>
	<path fill="#99AABF" d="M540,98.5H258.7c-0.1,0-0.2-0.1-0.3-0.2l-32.8-83.5c0-0.1,0-0.2,0-0.3c0.1-0.1,0.2-0.1,0.3-0.1h341.4
		c0.1,0,0.2,0,0.3,0.1c0.1,0.1,0.1,0.2,0,0.3l-27.2,83.5C540.3,98.4,540.2,98.5,540,98.5z M258.9,97.9h280.9l27-82.9H226.4
		L258.9,97.9z"/>
</g>
<g>
	<path fill="#FFFFFF" d="M446.4,312h-92.2c-2.2,0-4-1.8-4-4v-65c0-2.2,1.8-4,4-4h92.2c2.2,0,4,1.8,4,4v65
		C450.4,310.2,448.6,312,446.4,312z"/>
	<path fill="#99AABF" d="M447.9,312.3h-95.2c-1.5,0-2.8-1.2-2.8-2.8v-68c0-1.5,1.2-2.8,2.8-2.8h95.2c1.5,0,2.8,1.2,2.8,2.8v68
		C450.7,311.1,449.4,312.3,447.9,312.3z M352.7,239.4c-1.2,0-2.2,1-2.2,2.2v68c0,1.2,1,2.2,2.2,2.2h95.2c1.2,0,2.2-1,2.2-2.2v-68
		c0-1.2-1-2.2-2.2-2.2H352.7z"/>
</g>
<g>
	<rect x="205.2" y="6.4" fill="#99AABF" width="382.8" height="0.6"/>
</g>
<path fill="#99AABF" d="M398.7,10.7c0.1-0.5,0.9-0.8,1.8-0.7c0.8,0.1,1.4,0.5,1.3,1c-0.1,0.5-0.9,0.8-1.8,0.7
	C399.1,11.6,398.6,11.2,398.7,10.7z"/>
<g>
	<circle fill="#FFFFFF" cx="546" cy="129.6" r="3.7"/>
	<path fill="#99AABF" d="M546,133.6c-0.2,0-0.5,0-0.7-0.1c-1.1-0.2-2-0.8-2.6-1.7c-0.6-0.9-0.9-1.9-0.7-3c0.3-1.9,2-3.3,4-3.3
		c0.2,0,0.5,0,0.7,0.1c1.1,0.2,2,0.8,2.6,1.7c0.6,0.9,0.9,1.9,0.7,3C549.7,132.2,548,133.6,546,133.6z M546,126.2
		c-1.6,0-3.1,1.2-3.3,2.8c-0.2,0.9,0,1.8,0.6,2.5c0.5,0.7,1.3,1.2,2.2,1.4c0.2,0,0.4,0.1,0.6,0.1c1.6,0,3.1-1.2,3.3-2.8
		c0.2-0.9,0-1.8-0.6-2.5c-0.5-0.7-1.3-1.2-2.2-1.4C546.4,126.2,546.2,126.2,546,126.2z"/>
</g>
<g>
	<rect x="350.5" y="295.6" fill="#99AABF" width="100.1" height="0.6"/>
</g>
<path fill="#E4EAEF" d="M515.3,131v1.2c0,0.7,0.6,1.2,1.2,1.2h13.6c0.7,0,1.2-0.6,1.2-1.2V131H515.3z"/>
<path fill="#E4EAEF" d="M496.3,131v1.2c0,0.7,0.6,1.2,1.2,1.2h13.6c0.7,0,1.2-0.6,1.2-1.2V131H496.3z"/>
<path fill="#E4EAEF" d="M477.2,131v1.2c0,0.7,0.6,1.2,1.2,1.2h13.6c0.7,0,1.2-0.6,1.2-1.2V131H477.2z"/>
<path fill="#E4EAEF" d="M458.2,131v1.2c0,0.7,0.6,1.2,1.2,1.2H473c0.7,0,1.2-0.6,1.2-1.2V131H458.2z"/>
<path fill="#E4EAEF" d="M439.2,131v1.2c0,0.7,0.6,1.2,1.2,1.2H454c0.7,0,1.2-0.6,1.2-1.2V131H439.2z"/>
<path fill="#E4EAEF" d="M401.1,131v1.2c0,0.7,0.6,1.2,1.2,1.2H416c0.7,0,1.2-0.6,1.2-1.2V131H401.1z"/>
<path fill="#E4EAEF" d="M420.1,131v1.2c0,0.7,0.6,1.2,1.2,1.2H435c0.7,0,1.2-0.6,1.2-1.2V131H420.1z"/>
<path fill="#E4EAEF" d="M382.1,131v1.2c0,0.7,0.6,1.2,1.2,1.2h13.6c0.7,0,1.2-0.6,1.2-1.2V131H382.1z"/>
<path fill="#E4EAEF" d="M362.9,131v1.2c0,0.7,0.6,1.2,1.2,1.2h13.6c0.7,0,1.2-0.6,1.2-1.2V131H362.9z"/>
<path fill="#E4EAEF" d="M344,131v1.2c0,0.7,0.6,1.2,1.2,1.2h13.6c0.7,0,1.2-0.6,1.2-1.2V131H344z"/>
<path fill="#E4EAEF" d="M305.9,131v1.2c0,0.7,0.6,1.2,1.2,1.2h13.6c0.7,0,1.2-0.6,1.2-1.2V131H305.9z"/>
<path fill="#E4EAEF" d="M325,131v1.2c0,0.7,0.6,1.2,1.2,1.2h13.6c0.7,0,1.2-0.6,1.2-1.2V131H325z"/>
<path fill="#E4EAEF" d="M286.9,131v1.2c0,0.7,0.6,1.2,1.2,1.2h13.6c0.7,0,1.2-0.6,1.2-1.2V131H286.9z"/>
<path fill="#E4EAEF" d="M267.7,131v1.2c0,0.7,0.6,1.2,1.2,1.2h13.6c0.7,0,1.2-0.6,1.2-1.2V131H267.7z"/>
<path fill="#E4EAEF" d="M509.1,148.9v1.2c0,0.7,0.6,1.2,1.2,1.2h19.8c0.7,0,1.2-0.6,1.2-1.2v-1.2H509.1z"/>
<path fill="#E4EAEF" d="M490.6,148.9v1.2c0,0.7,0.6,1.2,1.2,1.2h13.6c0.7,0,1.2-0.6,1.2-1.2v-1.2H490.6z"/>
<path fill="#E4EAEF" d="M472,148.9v1.2c0,0.7,0.6,1.2,1.2,1.2h13.6c0.7,0,1.2-0.6,1.2-1.2v-1.2H472z"/>
<path fill="#E4EAEF" d="M453.5,148.9v1.2c0,0.7,0.6,1.2,1.2,1.2h13.6c0.7,0,1.2-0.6,1.2-1.2v-1.2H453.5z"/>
<path fill="#E4EAEF" d="M434.9,148.9v1.2c0,0.7,0.6,1.2,1.2,1.2h13.6c0.7,0,1.2-0.6,1.2-1.2v-1.2H434.9z"/>
<path fill="#E4EAEF" d="M397.9,148.9v1.2c0,0.7,0.6,1.2,1.2,1.2h13.6c0.7,0,1.2-0.6,1.2-1.2v-1.2H397.9z"/>
<path fill="#E4EAEF" d="M416.2,148.9v1.2c0,0.7,0.6,1.2,1.2,1.2h13.6c0.7,0,1.2-0.6,1.2-1.2v-1.2H416.2z"/>
<path fill="#E4EAEF" d="M379.1,148.9v1.2c0,0.7,0.6,1.2,1.2,1.2h13.6c0.7,0,1.2-0.6,1.2-1.2v-1.2H379.1z"/>
<path fill="#E4EAEF" d="M360.6,148.9v1.2c0,0.7,0.6,1.2,1.2,1.2h13.6c0.7,0,1.2-0.6,1.2-1.2v-1.2H360.6z"/>
<path fill="#E4EAEF" d="M342.2,148.9v1.2c0,0.7,0.6,1.2,1.2,1.2H357c0.7,0,1.2-0.6,1.2-1.2v-1.2H342.2z"/>
<path fill="#E4EAEF" d="M305.2,149v1.2c0,0.7,0.6,1.2,1.2,1.2h13.6c0.7,0,1.2-0.6,1.2-1.2V149H305.2z"/>
<path fill="#E4EAEF" d="M323.6,148.9v1.2c0,0.7,0.6,1.2,1.2,1.2h13.6c0.7,0,1.2-0.6,1.2-1.2v-1.2H323.6z"/>
<path fill="#E4EAEF" d="M286.5,148.9v1.2c0,0.7,0.6,1.2,1.2,1.2h13.6c0.7,0,1.2-0.6,1.2-1.2v-1.2H286.5z"/>
<path fill="#E4EAEF" d="M267.7,148.9v1.2c0,0.7,0.6,1.2,1.2,1.2h13.6c0.7,0,1.2-0.6,1.2-1.2v-1.2H267.7z"/>
<path fill="#E4EAEF" d="M515.3,166.9v1.2c0,0.7,0.6,1.2,1.2,1.2h13.6c0.7,0,1.2-0.6,1.2-1.2v-1.2H515.3z"/>
<path fill="#E4EAEF" d="M496.7,166.9v1.2c0,0.7,0.6,1.2,1.2,1.2h13.6c0.7,0,1.2-0.6,1.2-1.2v-1.2H496.7z"/>
<path fill="#E4EAEF" d="M478.2,166.9v1.2c0,0.7,0.6,1.2,1.2,1.2h13.6c0.7,0,1.2-0.6,1.2-1.2v-1.2H478.2z"/>
<path fill="#E4EAEF" d="M459.7,166.9v1.2c0,0.7,0.6,1.2,1.2,1.2h13.6c0.7,0,1.2-0.6,1.2-1.2v-1.2H459.7z"/>
<path fill="#E4EAEF" d="M422.6,166.9v1.2c0,0.7,0.6,1.2,1.2,1.2h13.6c0.7,0,1.2-0.6,1.2-1.2v-1.2H422.6z"/>
<path fill="#E4EAEF" d="M441,166.9v1.2c0,0.7,0.6,1.2,1.2,1.2h13.6c0.7,0,1.2-0.6,1.2-1.2v-1.2H441z"/>
<path fill="#E4EAEF" d="M403.8,166.9v1.2c0,0.7,0.6,1.2,1.2,1.2h13.6c0.7,0,1.2-0.6,1.2-1.2v-1.2H403.8z"/>
<path fill="#E4EAEF" d="M385.4,166.9v1.2c0,0.7,0.6,1.2,1.2,1.2h13.6c0.7,0,1.2-0.6,1.2-1.2v-1.2H385.4z"/>
<path fill="#E4EAEF" d="M366.9,166.9v1.2c0,0.7,0.6,1.2,1.2,1.2h13.6c0.7,0,1.2-0.6,1.2-1.2v-1.2H366.9z"/>
<path fill="#E4EAEF" d="M348.4,166.9v1.2c0,0.7,0.6,1.2,1.2,1.2h13.6c0.7,0,1.2-0.6,1.2-1.2v-1.2H348.4z"/>
<path fill="#E4EAEF" d="M504.1,184.8v1.2c0,0.7,0.6,1.2,1.2,1.2h24.7c0.7,0,1.2-0.6,1.2-1.2v-1.2H504.1z"/>
<path fill="#E4EAEF" d="M485.6,184.8v1.2c0,0.7,0.6,1.2,1.2,1.2h13.6c0.7,0,1.2-0.6,1.2-1.2v-1.2H485.6z"/>
<path fill="#E4EAEF" d="M467.1,184.8v1.2c0,0.7,0.6,1.2,1.2,1.2h13.6c0.7,0,1.2-0.6,1.2-1.2v-1.2H467.1z"/>
<path fill="#E4EAEF" d="M430,184.8v1.2c0,0.7,0.6,1.2,1.2,1.2h13.6c0.7,0,1.2-0.6,1.2-1.2v-1.2H430z"/>
<path fill="#E4EAEF" d="M448.4,184.8v1.2c0,0.7,0.6,1.2,1.2,1.2h13.6c0.7,0,1.2-0.6,1.2-1.2v-1.2H448.4z"/>
<path fill="#E4EAEF" d="M411.2,184.8v1.2c0,0.7,0.6,1.2,1.2,1.2h13.6c0.7,0,1.2-0.6,1.2-1.2v-1.2H411.2z"/>
<path fill="#E4EAEF" d="M392.8,184.8v1.2c0,0.7,0.6,1.2,1.2,1.2h13.6c0.7,0,1.2-0.6,1.2-1.2v-1.2H392.8z"/>
<path fill="#E4EAEF" d="M374.3,184.8v1.2c0,0.7,0.6,1.2,1.2,1.2h13.6c0.7,0,1.2-0.6,1.2-1.2v-1.2H374.3z"/>
<path fill="#E4EAEF" d="M355.8,184.8v1.2c0,0.7,0.6,1.2,1.2,1.2h13.6c0.7,0,1.2-0.6,1.2-1.2v-1.2H355.8z"/>
<path fill="#E4EAEF" d="M329.7,166.9v1.2c0,0.7,0.6,1.2,1.2,1.2h13.6c0.7,0,1.2-0.6,1.2-1.2v-1.2H329.7z"/>
<path fill="#E4EAEF" d="M311.2,166.9v1.2c0,0.7,0.6,1.2,1.2,1.2h13.6c0.7,0,1.2-0.6,1.2-1.2v-1.2H311.2z"/>
<path fill="#E4EAEF" d="M292.7,166.9v1.2c0,0.7,0.6,1.2,1.2,1.2h13.6c0.7,0,1.2-0.6,1.2-1.2v-1.2H292.7z"/>
<path fill="#E4EAEF" d="M337.1,184.8v1.2c0,0.7,0.6,1.2,1.2,1.2H352c0.7,0,1.2-0.6,1.2-1.2v-1.2H337.1z"/>
<path fill="#E4EAEF" d="M318.7,184.8v1.2c0,0.7,0.6,1.2,1.2,1.2h13.6c0.7,0,1.2-0.6,1.2-1.2v-1.2H318.7z"/>
<path fill="#E4EAEF" d="M300.1,184.8v1.2c0,0.7,0.6,1.2,1.2,1.2H315c0.7,0,1.2-0.6,1.2-1.2v-1.2H300.1z"/>
<path fill="#E4EAEF" d="M268,166.9v1.2c0,0.7,0.6,1.2,1.2,1.2H289c0.7,0,1.2-0.6,1.2-1.2v-1.2H268z"/>
<path fill="#E4EAEF" d="M268,184.8v1.2c0,0.7,0.6,1.2,1.2,1.2h27.2c0.7,0,1.2-0.6,1.2-1.2v-1.2H268z"/>
<path fill="#E4EAEF" d="M494.9,202.7v1.2c0,0.7,0.6,1.2,1.2,1.2h34c0.7,0,1.2-0.6,1.2-1.2v-1.2H494.9z"/>
<path fill="#E4EAEF" d="M476.4,202.7v1.2c0,0.7,0.6,1.2,1.2,1.2h13.6c0.7,0,1.2-0.6,1.2-1.2v-1.2H476.4z"/>
<path fill="#E4EAEF" d="M457.8,202.7v1.2c0,0.7,0.6,1.2,1.2,1.2h13.6c0.7,0,1.2-0.6,1.2-1.2v-1.2H457.8z"/>
<path fill="#E4EAEF" d="M420.8,202.7v1.2c0,0.7,0.6,1.2,1.2,1.2h13.6c0.7,0,1.2-0.6,1.2-1.2v-1.2H420.8z"/>
<path fill="#E4EAEF" d="M439.1,202.7v1.2c0,0.7,0.6,1.2,1.2,1.2H454c0.7,0,1.2-0.6,1.2-1.2v-1.2H439.1z"/>
<path fill="#E4EAEF" d="M402,202.7v1.2c0,0.7,0.6,1.2,1.2,1.2h13.6c0.7,0,1.2-0.6,1.2-1.2v-1.2H402z"/>
<path fill="#E4EAEF" d="M383.5,202.7v1.2c0,0.7,0.6,1.2,1.2,1.2h13.6c0.7,0,1.2-0.6,1.2-1.2v-1.2H383.5z"/>
<path fill="#E4EAEF" d="M365,202.7v1.2c0,0.7,0.6,1.2,1.2,1.2h13.6c0.7,0,1.2-0.6,1.2-1.2v-1.2H365z"/>
<path fill="#E4EAEF" d="M346.5,202.7v1.2c0,0.7,0.6,1.2,1.2,1.2h13.6c0.7,0,1.2-0.6,1.2-1.2v-1.2H346.5z"/>
<path fill="#E4EAEF" d="M327.9,202.7v1.2c0,0.7,0.6,1.2,1.2,1.2h13.6c0.7,0,1.2-0.6,1.2-1.2v-1.2H327.9z"/>
<path fill="#E4EAEF" d="M309.4,202.7v1.2c0,0.7,0.6,1.2,1.2,1.2h13.6c0.7,0,1.2-0.6,1.2-1.2v-1.2H309.4z"/>
<path fill="#E4EAEF" d="M268,202.7v1.2c0,0.7,0.6,1.2,1.2,1.2h36.5c0.7,0,1.2-0.6,1.2-1.2v-1.2H268z"/>
<path fill="#E4EAEF" d="M459.7,222.5v1.2c0,0.7,0.6,1.2,1.2,1.2h13.6c0.7,0,1.2-0.6,1.2-1.2v-1.2H459.7z"/>
<path fill="#E4EAEF" d="M478.2,222.5v1.2c0,0.7,0.6,1.2,1.2,1.2h13.6c0.7,0,1.2-0.6,1.2-1.2v-1.2H478.2z"/>
<path fill="#E4EAEF" d="M496.8,222.5v1.2c0,0.7,0.6,1.2,1.2,1.2h13.6c0.7,0,1.2-0.6,1.2-1.2v-1.2H496.8z"/>
<path fill="#E4EAEF" d="M515.3,222.5v1.2c0,0.7,0.6,1.2,1.2,1.2h13.6c0.7,0,1.2-0.6,1.2-1.2v-1.2H515.3z"/>
<path fill="#E4EAEF" d="M496.8,213.2v1.2c-0.2,0.9,0.3,1.4,1.2,1.2h13.6c0.8,0.1,1.4-0.4,1.2-1.2v-1.2H496.8z"/>
<path fill="#E4EAEF" d="M437.4,222.5v1.2c0,0.7,0.6,1.2,1.2,1.2h17.3c0.7,0,1.2-0.6,1.2-1.2v-1.2H437.4z"/>
<path fill="#E4EAEF" d="M345.9,222.5v1.2c0,0.7,0.6,1.2,1.2,1.2h86.6c0.7,0,1.2-0.6,1.2-1.2v-1.2H345.9z"/>
<path fill="#E4EAEF" d="M268,222.5v1.2c0,0.7,0.6,1.2,1.2,1.2h13.6c0.7,0,1.2-0.6,1.2-1.2v-1.2H268z"/>
<path fill="#E4EAEF" d="M286.5,222.5v1.2c0,0.7,0.6,1.2,1.2,1.2h13.6c0.7,0,1.2-0.6,1.2-1.2v-1.2H286.5z"/>
<path fill="#E4EAEF" d="M305.1,222.5v1.2c0,0.7,0.6,1.2,1.2,1.2h13.6c0.7,0,1.2-0.6,1.2-1.2v-1.2H305.1z"/>
<path fill="#E4EAEF" d="M323.6,222.5v1.2c0,0.7,0.6,1.2,1.2,1.2h17.3c0.7,0,1.2-0.6,1.2-1.2v-1.2H323.6z"/>
<g>
	<path fill="#FFFFFF" d="M657.1,156.1l-16.8,95.4c-0.2,1-1.1,1.7-2.1,1.5l-51.6-9.1c-1-0.2-1.7-1.1-1.5-2.1l16.8-95.4"/>
	<g>
		<path fill="#92BDDD" d="M638.5,253.4c-0.1,0-0.3,0-0.4,0l-51.6-9.1c-1.2-0.2-2-1.3-1.8-2.5l16.8-95.4l0.6,0.1l-16.8,95.4
			c-0.1,0.8,0.4,1.6,1.3,1.8l51.6,9.1c0.8,0.1,1.6-0.4,1.8-1.3l16.8-95.4l0.6,0.1l-16.8,95.4c-0.1,0.6-0.4,1.1-0.9,1.4
			C639.3,253.2,638.9,253.4,638.5,253.4z"/>
	</g>
</g>
<circle fill="#99AABF" cx="630.9" cy="142.7" r="0.9"/>
<g>
	<path fill="#FFFFFF" d="M634.9,147.8c0,0.3-0.3,0.4-0.6,0.4l-8.8-1.6c-0.3,0-0.4-0.3-0.4-0.6l0-0.3c0-0.3,0.3-0.4,0.6-0.4l8.8,1.6
		c0.3,0,0.4,0.3,0.4,0.6L634.9,147.8z"/>
	<path fill="#99AABF" d="M634.4,148.5c0,0-0.1,0-0.1,0l-8.8-1.6c-0.4-0.1-0.7-0.5-0.6-0.9l0-0.3c0.1-0.4,0.5-0.7,0.9-0.6l8.8,1.6
		c0.4,0.1,0.7,0.5,0.6,0.9l0,0.3C635.1,148.2,634.8,148.5,634.4,148.5z M625.7,145c-0.1,0-0.2,0.4-0.2,0.5l0,0.4
		c0,0.1,0,0.3,0.1,0.3l8.8,1.6c0.1,0,0.2,0,0.2-0.1l0-0.3c0-0.1,0-0.5-0.1-0.5L625.7,145C625.7,145,625.7,145,625.7,145z"/>
</g>
<g>
	<circle fill="#FFFFFF" cx="611" cy="255.5" r="4.3"/>
	<path fill="#99AABF" d="M611,260.1c-0.3,0-0.5,0-0.8-0.1c-1.2-0.2-2.3-0.9-3-1.9c-0.7-1-1-2.2-0.8-3.4c0.4-2.2,2.3-3.8,4.5-3.8
		c0.3,0,0.5,0,0.8,0.1c1.2,0.2,2.3,0.9,3,1.9c0.7,1,1,2.2,0.8,3.4C615.2,258.5,613.3,260.1,611,260.1z M611,251.5
		c-1.9,0-3.6,1.4-3.9,3.3c-0.2,1,0,2.1,0.7,3c0.6,0.9,1.5,1.5,2.6,1.6c0.2,0,0.5,0.1,0.7,0.1c1.9,0,3.6-1.4,3.9-3.3
		c0.2-1,0-2.1-0.7-3c-0.6-0.9-1.5-1.5-2.6-1.6C611.5,251.5,611.2,251.5,611,251.5z"/>
</g>
<g>
	<circle fill="#FFFFFF" cx="146.3" cy="355.9" r="4.3"/>
	<path fill="#99AABF" d="M146.3,360.5c-2.1,0-3.9-1.4-4.4-3.4c-0.7-2.5,0.8-5,3.3-5.6c0.4-0.1,0.8-0.2,1.2-0.2
		c2.1,0,3.9,1.4,4.4,3.4c0.3,1.2,0.2,2.4-0.5,3.5c-0.6,1.1-1.6,1.8-2.8,2.1C147.1,360.4,146.7,360.5,146.3,360.5z M146.3,351.9
		c-0.3,0-0.7,0-1,0.1c-2.1,0.6-3.4,2.8-2.8,4.9c0.5,1.7,2,3,3.8,3c0.3,0,0.7,0,1-0.1c1-0.3,1.9-0.9,2.4-1.9c0.5-0.9,0.7-2,0.4-3
		C149.7,353.1,148.1,351.9,146.3,351.9z"/>
</g>
<circle fill="#99AABF" cx="90.3" cy="148" r="1.2"/>
<g>
	<path fill="#CCE5FB" d="M649.1,175.3l-31.7-5.9c-0.2,0-8-1.4-8-1.5l0.4-2.5c0-0.1,0.2-0.2,0.5-0.1l39.4,7.1c0.2,0,0.4,0.2,0.4,0.3
		l-0.4,2.5C649.5,175.2,649.3,175.3,649.1,175.3z"/>
	<path fill="#92BDDD" d="M649.3,175.6c-0.1,0-0.1,0-0.2,0l-32.1-5.9c-7.7-1.3-7.8-1.4-7.9-1.6L609,168l0.5-2.6
		c0.1-0.3,0.4-0.5,0.8-0.4l39.4,7.1c0.4,0.1,0.7,0.3,0.6,0.6l-0.4,2.5C649.8,175.4,649.6,175.6,649.3,175.6z M609.7,167.7
		c0.5,0.1,2.2,0.4,7.4,1.3l0.3,0.1l31.7,5.9c0,0,0.1,0,0.1,0l0.4-2.3c0,0-0.1,0-0.1,0l-39.4-7.1c0,0-0.1,0-0.1,0L609.7,167.7z"/>
</g>
<g>
	<line fill="#CCE5FB" x1="616.6" y1="172.7" x2="608.9" y2="171.4"/>
	
		<rect x="608.9" y="171.8" transform="matrix(0.9854 0.1705 -0.1705 0.9854 38.3002 -101.935)" fill="#92BDDD" width="7.8" height="0.6"/>
</g>
<g>
	<line fill="#CCE5FB" x1="623.6" y1="174" x2="618.7" y2="173.2"/>
	
		<rect x="618.7" y="173.3" transform="matrix(0.9853 0.1709 -0.1709 0.9853 38.8164 -103.6212)" fill="#92BDDD" width="5" height="0.6"/>
</g>
<g>
	<circle fill="#F8CDF9" cx="603.8" cy="167" r="2.9"/>
	<path fill="#D693DB" d="M603.8,170.2c-0.2,0-0.4,0-0.6-0.1c-1.7-0.3-2.9-2-2.6-3.7c0.3-1.5,1.6-2.6,3.2-2.6c0.2,0,0.4,0,0.6,0.1
		c0.8,0.2,1.6,0.6,2.1,1.3c0.5,0.7,0.7,1.6,0.5,2.4C606.7,169.1,605.3,170.2,603.8,170.2z M603.8,164.4c-1.3,0-2.3,0.9-2.6,2.1
		c-0.3,1.4,0.7,2.8,2.1,3c1.4,0.3,2.8-0.7,3-2.1c0.1-0.7,0-1.4-0.4-1.9c-0.4-0.6-1-1-1.7-1.1C604.1,164.4,603.9,164.4,603.8,164.4z"
		/>
</g>
<g>
	<path fill="#CCE5FB" d="M636.6,188.2l-21.9-4.1c-0.2,0-8-1.4-8-1.5l0.4-2.5c0-0.1,0.2-0.2,0.5-0.1l29.6,5.3c0.2,0,0.4,0.2,0.4,0.3
		l-0.4,2.5C637.1,188.2,636.9,188.2,636.6,188.2z"/>
	<path fill="#92BDDD" d="M636.8,188.5c-0.1,0-0.1,0-0.2,0l-22.2-4.1c-7.8-1.3-7.8-1.4-7.9-1.6l-0.1-0.1l0.5-2.6
		c0.1-0.3,0.4-0.5,0.8-0.4l29.6,5.3c0.2,0,0.4,0.2,0.6,0.3c0.1,0.1,0.1,0.2,0.1,0.3l-0.4,2.5C637.4,188.4,637.1,188.5,636.8,188.5z
		 M607,182.4c0.5,0.1,2.2,0.5,7.4,1.4l0.3,0.1l21.9,4.1c0,0,0.1,0,0.1,0l0.4-2.3c0,0-0.1,0-0.1,0l-29.6-5.3c0,0-0.1,0-0.1,0
		L607,182.4z"/>
</g>
<g>
	<line fill="#CCE5FB" x1="618.8" y1="188.3" x2="606.2" y2="186.1"/>
	
		<rect x="606.2" y="186.9" transform="matrix(0.9848 0.1735 -0.1735 0.9848 41.7818 -103.4529)" fill="#92BDDD" width="12.8" height="0.6"/>
</g>
<g>
	<line fill="#CCE5FB" x1="624.9" y1="189.5" x2="621" y2="188.8"/>
	
		<rect x="620.9" y="188.8" transform="matrix(0.9856 0.1691 -0.1691 0.9856 40.9432 -102.5965)" fill="#92BDDD" width="4" height="0.6"/>
</g>
<g>
	<circle fill="#CDF9DF" cx="601.1" cy="181.7" r="2.9"/>
	<path fill="#93DB93" d="M601.1,184.9c-0.2,0-0.4,0-0.6-0.1c-0.8-0.2-1.6-0.6-2.1-1.3c-0.5-0.7-0.7-1.6-0.5-2.4
		c0.3-1.5,1.6-2.6,3.2-2.6c0.2,0,0.4,0,0.6,0.1c0.8,0.2,1.6,0.6,2.1,1.3c0.5,0.7,0.7,1.6,0.5,2.4C604,183.8,602.7,184.9,601.1,184.9
		z M601.1,179.1c-1.3,0-2.3,0.9-2.6,2.1c-0.1,0.7,0,1.4,0.4,1.9c0.4,0.6,1,1,1.7,1.1c0.2,0,0.3,0,0.5,0c1.3,0,2.3-0.9,2.6-2.1
		c0.1-0.7,0-1.4-0.4-1.9c-0.4-0.6-1-1-1.7-1.1C601.4,179.1,601.3,179.1,601.1,179.1z"/>
</g>
<g>
	<path fill="#CCE5FB" d="M638.9,203.8l-26.8-5c-0.2,0-8-1.4-8-1.5l0.4-2.5c0-0.1,0.2-0.2,0.5-0.1l34.5,6.2c0.2,0,0.4,0.2,0.4,0.3
		l-0.4,2.5C639.3,203.8,639.1,203.8,638.9,203.8z"/>
	<path fill="#92BDDD" d="M639,204.1c-0.1,0-0.1,0-0.2,0l-27.1-5c-7.8-1.3-7.8-1.4-7.9-1.6l-0.1-0.1l0.5-2.6c0.1-0.3,0.4-0.5,0.8-0.4
		l34.5,6.2c0.2,0,0.4,0.2,0.6,0.3c0.1,0.1,0.1,0.2,0.1,0.3l-0.4,2.5C639.6,204,639.3,204.1,639,204.1z M604.4,197.1
		c0.5,0.1,2.2,0.5,7.4,1.4l0.3,0.1l26.8,5c0,0,0.1,0,0.1,0l0.4-2.3c0,0-0.1,0-0.1,0l-34.5-6.2c0,0-0.1,0-0.1,0L604.4,197.1z"/>
</g>
<g>
	<line fill="#CCE5FB" x1="621.1" y1="203.9" x2="603.6" y2="200.8"/>
	
		<rect x="603.4" y="202.1" transform="matrix(0.9846 0.1749 -0.1749 0.9846 44.8191 -103.9475)" fill="#92BDDD" width="17.8" height="0.6"/>
</g>
<g>
	<line fill="#CCE5FB" x1="633" y1="206.1" x2="623.2" y2="204.4"/>
	
		<rect x="623.1" y="204.9" transform="matrix(0.9846 0.1746 -0.1746 0.9846 45.4937 -106.529)" fill="#92BDDD" width="10" height="0.6"/>
</g>
<g>
	<circle fill="#F9CDDD" cx="598.5" cy="196.4" r="2.9"/>
	<path fill="#DB93B0" d="M598.5,199.7c-0.2,0-0.4,0-0.6-0.1c-1.7-0.3-2.9-2-2.6-3.7c0.3-1.5,1.6-2.6,3.2-2.6c0.2,0,0.4,0,0.6,0.1
		c0.8,0.2,1.6,0.6,2.1,1.3c0.5,0.7,0.7,1.6,0.5,2.4C601.3,198.5,600,199.7,598.5,199.7z M598.5,193.8c-1.3,0-2.3,0.9-2.6,2.1
		c-0.3,1.4,0.7,2.8,2.1,3c0.2,0,0.3,0,0.5,0c1.3,0,2.3-0.9,2.6-2.1c0.1-0.7,0-1.4-0.4-1.9c-0.4-0.6-1-1-1.7-1.1
		C598.8,193.9,598.6,193.8,598.5,193.8z"/>
</g>
<g>
	<path fill="#CCE5FB" d="M641.6,219.5l-32.2-6c-0.2,0-8-1.4-8-1.5l0.4-2.5c0-0.1,0.2-0.2,0.5-0.1l39.9,7.2c0.2,0,0.4,0.2,0.4,0.3
		l-0.4,2.5C642,219.5,641.8,219.5,641.6,219.5z"/>
	<path fill="#92BDDD" d="M641.7,219.8c-0.1,0-0.1,0-0.2,0l-32.5-6c-7.8-1.3-7.8-1.4-7.9-1.6l-0.1-0.1l0.5-2.6
		c0.1-0.3,0.4-0.5,0.8-0.4l39.9,7.2c0.2,0,0.4,0.2,0.6,0.3c0.1,0.1,0.1,0.2,0.1,0.3l-0.4,2.5C642.3,219.6,642.1,219.8,641.7,219.8z
		 M601.7,211.8c0.5,0.1,2.2,0.5,7.4,1.4l0.3,0.1l32.2,6c0,0,0.1,0,0.1,0l0.4-2.3c0,0-0.1,0-0.1,0l-39.9-7.2c0,0-0.1,0-0.1,0
		L601.7,211.8z"/>
</g>
<g>
	<line fill="#CCE5FB" x1="613.5" y1="217.8" x2="600.9" y2="215.5"/>
	
		<rect x="600.8" y="216.3" transform="matrix(0.9848 0.1735 -0.1735 0.9848 46.7921 -102.0554)" fill="#92BDDD" width="12.8" height="0.6"/>
</g>
<g>
	<path fill="#CCE5FB" d="M620.5,219.1c-1.2-0.2-1.2-0.2-2.4-0.5c-1.2-0.2-1.2-0.1-2.5-0.4"/>
	<g>
		<path fill="#92BDDD" d="M620.5,219.4c-0.6-0.1-0.9-0.2-1.2-0.2c-0.3-0.1-0.6-0.1-1.2-0.2c-0.6-0.1-0.9-0.1-1.2-0.2
			c-0.3,0-0.6-0.1-1.3-0.2l0.1-0.6c0.6,0.1,0.9,0.1,1.2,0.2c0.3,0,0.6,0.1,1.2,0.2c0.6,0.1,0.9,0.2,1.2,0.2c0.3,0.1,0.6,0.1,1.2,0.2
			L620.5,219.4z"/>
	</g>
</g>
<g>
	<circle fill="#F7F7CD" cx="595.8" cy="211.2" r="2.9"/>
	<path fill="#CFD394" d="M595.8,214.4c-0.2,0-0.4,0-0.6-0.1c-0.8-0.2-1.6-0.6-2.1-1.3c-0.5-0.7-0.7-1.6-0.5-2.4
		c0.3-1.5,1.6-2.6,3.2-2.6c0.2,0,0.4,0,0.6,0.1c1.7,0.3,2.9,2,2.6,3.7C598.7,213.3,597.4,214.4,595.8,214.4z M595.8,208.6
		c-1.3,0-2.3,0.9-2.6,2.1c-0.1,0.7,0,1.4,0.4,1.9c0.4,0.6,1,1,1.7,1.1c0.2,0,0.3,0,0.5,0c1.3,0,2.3-0.9,2.6-2.1
		c0.3-1.4-0.7-2.8-2.1-3C596.1,208.6,595.9,208.6,595.8,208.6z"/>
</g>
<g>
	<path fill="#CCE5FB" d="M631.1,232.8l-24.4-4.5c-0.2,0-8-1.4-8-1.5l0.4-2.5c0-0.1,0.2-0.2,0.5-0.1l32,5.7c0.2,0,0.4,0.2,0.4,0.3
		l-0.4,2.5C631.5,232.8,631.3,232.8,631.1,232.8z"/>
	<path fill="#92BDDD" d="M631.2,233.1c-0.1,0-0.1,0-0.2,0l-24.7-4.6c-7.7-1.3-7.8-1.4-7.9-1.6l-0.1-0.1l0.5-2.6
		c0.1-0.3,0.4-0.5,0.8-0.4l32,5.7c0.4,0.1,0.7,0.3,0.6,0.6l-0.4,2.5C631.8,232.9,631.6,233.1,631.2,233.1z M599,226.5
		c0.5,0.1,2.3,0.5,7.4,1.3l0.4,0.1l24.4,4.5c0,0,0.1,0,0.1,0l0.4-2.3c0,0-0.1,0-0.1,0l-32-5.7c0,0-0.1,0-0.1,0L599,226.5z"/>
</g>
<g>
	<line fill="#CCE5FB" x1="620.6" y1="234.2" x2="598.3" y2="230.3"/>
	
		<rect x="598.1" y="231.9" transform="matrix(0.9845 0.1756 -0.1756 0.9845 50.2517 -103.4081)" fill="#92BDDD" width="22.7" height="0.6"/>
</g>
<g>
	<line fill="#CCE5FB" x1="626.7" y1="235.4" x2="622.8" y2="234.7"/>
	
		<rect x="622.7" y="234.7" transform="matrix(0.9856 0.169 -0.169 0.9856 48.7234 -102.2271)" fill="#92BDDD" width="4" height="0.6"/>
</g>
<g>
	<circle fill="#CDF9DF" cx="593.1" cy="225.9" r="2.9"/>
	<path fill="#93DB93" d="M593.1,229.1c-0.2,0-0.4,0-0.6-0.1c-1.7-0.3-2.9-2-2.6-3.7c0.3-1.5,1.6-2.6,3.2-2.6c0.2,0,0.4,0,0.6,0.1
		c0.8,0.2,1.6,0.6,2.1,1.3c0.5,0.7,0.7,1.6,0.5,2.4C596,228,594.7,229.1,593.1,229.1z M593.1,223.3c-1.3,0-2.3,0.9-2.6,2.1
		c-0.3,1.4,0.7,2.8,2.1,3c0.2,0,0.3,0,0.5,0c1.3,0,2.3-0.9,2.6-2.1c0.1-0.7,0-1.4-0.4-1.9c-0.4-0.6-1-1-1.7-1.1
		C593.4,223.3,593.3,223.3,593.1,223.3z"/>
</g>
<g>
	
		<rect x="45.9" y="155.3" transform="matrix(0.9653 -0.2611 0.2611 0.9653 -61.7969 39.6259)" fill="#FFFFFF" width="144.7" height="194.2"/>
	<path fill="#99AABF" d="M73.8,365.3c-0.1,0-0.1,0-0.2,0c-0.1,0-0.1-0.1-0.1-0.2L22.8,177.7c0-0.2,0.1-0.3,0.2-0.4l139.7-37.8
		c0.1,0,0.2,0,0.2,0c0.1,0,0.1,0.1,0.1,0.2l50.7,187.4c0,0.2-0.1,0.3-0.2,0.4L73.8,365.3C73.8,365.3,73.8,365.3,73.8,365.3z
		 M23.4,177.8L74,364.6L213.1,327l-50.5-186.8L23.4,177.8z"/>
</g>
<g>
	
		<rect x="52.1" y="172.3" transform="matrix(0.9653 -0.2611 0.2611 0.9653 -66.67 28.011)" fill="#FFFFFF" width="40" height="185.2"/>
	<path fill="#92BDDD" d="M77,359.8c-0.1,0-0.1,0-0.2,0c-0.1,0-0.1-0.1-0.1-0.2L28.3,180.8c0-0.2,0.1-0.3,0.2-0.4L67.1,170
		c0.1,0,0.2,0,0.2,0c0.1,0,0.1,0.1,0.1,0.2L115.8,349c0,0.2-0.1,0.3-0.2,0.4L77,359.8C77,359.8,77,359.8,77,359.8z M29,180.9
		l48.2,178.2l38-10.3L67,170.7L29,180.9z"/>
</g>
<g>
	<circle fill="#F9CDCD" cx="51.2" cy="190.6" r="8.5"/>
	<path fill="#DB9393" d="M51.2,199.4c-4,0-7.4-2.7-8.5-6.5c-1.3-4.7,1.5-9.5,6.2-10.7c0.7-0.2,1.5-0.3,2.3-0.3c4,0,7.4,2.7,8.5,6.5
		c0.6,2.3,0.3,4.6-0.9,6.6c-1.2,2-3.1,3.5-5.3,4.1C52.7,199.3,51.9,199.4,51.2,199.4z M51.2,182.5c-0.7,0-1.4,0.1-2.1,0.3
		c-4.3,1.2-6.9,5.6-5.8,10c1,3.6,4.2,6,7.9,6c0.7,0,1.4-0.1,2.1-0.3c2.1-0.6,3.9-1.9,4.9-3.8c1.1-1.9,1.4-4.1,0.8-6.2
		C58.1,184.9,54.9,182.5,51.2,182.5z"/>
</g>
<g>
	<polygon fill="#FFFFFF" points="187.5,329.7 120,348 71.6,169.2 139.2,150.9 	"/>
	<path fill="#92BDDD" d="M120,348.3c-0.1,0-0.1,0-0.2,0c-0.1,0-0.1-0.1-0.1-0.2L71.3,169.3c0-0.2,0.1-0.3,0.2-0.4l67.5-18.3
		c0.1,0,0.2,0,0.2,0c0.1,0,0.1,0.1,0.1,0.2l48.4,178.8c0,0.2-0.1,0.3-0.2,0.4L120,348.3C120,348.3,120,348.3,120,348.3z M72,169.4
		l48.2,178.2l66.9-18.1l-48.2-178.2L72,169.4z"/>
</g>
<g>
	<polygon fill="#CCE5FB" points="143.5,167.1 76,185.3 71.6,169.2 139.1,150.9 	"/>
	<path fill="#92BDDD" d="M75.7,185.7L71.2,169l68.1-18.4l4.5,16.7L75.7,185.7z M72,169.4l4.2,15.5l66.9-18.1l-4.2-15.5L72,169.4z"/>
</g>
<g>
	
		<rect x="55.3" y="196" transform="matrix(0.2627 0.9649 -0.9649 0.2627 239.2648 97.8594)" fill="#92BDDD" width="0.6" height="18.9"/>
</g>
<g>
	
		<rect x="56.9" y="202" transform="matrix(0.2627 0.9649 -0.9649 0.2627 246.2129 100.7082)" fill="#92BDDD" width="0.6" height="18.9"/>
</g>
<g>
	
		<rect x="58.5" y="208" transform="matrix(0.2627 0.9649 -0.9649 0.2627 253.1611 103.557)" fill="#92BDDD" width="0.6" height="18.9"/>
</g>
<g>
	
		<rect x="60.1" y="213.9" transform="matrix(0.2627 0.9649 -0.9649 0.2627 260.109 106.4061)" fill="#92BDDD" width="0.6" height="18.9"/>
</g>
<g>
	
		<rect x="61.7" y="219.9" transform="matrix(0.2627 0.9649 -0.9649 0.2627 267.0572 109.2549)" fill="#92BDDD" width="0.6" height="18.9"/>
</g>
<g>
	
		<rect x="63.3" y="225.9" transform="matrix(0.2627 0.9649 -0.9649 0.2627 274.0053 112.1036)" fill="#92BDDD" width="0.6" height="18.9"/>
</g>
<g>
	
		<rect x="65" y="231.8" transform="matrix(0.2627 0.9649 -0.9649 0.2627 280.9531 114.9524)" fill="#92BDDD" width="0.6" height="18.9"/>
</g>
<g>
	
		<rect x="66.6" y="237.8" transform="matrix(0.2627 0.9649 -0.9649 0.2627 287.9011 117.8013)" fill="#92BDDD" width="0.6" height="18.9"/>
</g>
<g>
	<circle fill="#F8CDF9" cx="85.1" cy="191.3" r="3.6"/>
	<path fill="#D693DB" d="M85.1,195.2c-1.8,0-3.3-1.2-3.8-2.9c-0.6-2.1,0.7-4.2,2.8-4.8c0.3-0.1,0.7-0.1,1-0.1c1.8,0,3.3,1.2,3.8,2.9
		c0.6,2.1-0.7,4.2-2.8,4.8C85.8,195.2,85.4,195.2,85.1,195.2z M85.1,188c-0.3,0-0.6,0-0.9,0.1c-1.8,0.5-2.8,2.3-2.3,4
		c0.4,1.4,1.7,2.4,3.2,2.4c0.3,0,0.6,0,0.9-0.1c1.8-0.5,2.8-2.3,2.3-4C87.9,189,86.6,188,85.1,188z"/>
</g>
<g>
	<circle fill="#CDF9DF" cx="89.9" cy="209.2" r="3.6"/>
	<path fill="#93DB93" d="M89.9,213.2c-1.8,0-3.3-1.2-3.8-2.9c-0.3-1-0.1-2.1,0.4-3c0.5-0.9,1.4-1.6,2.4-1.8c0.3-0.1,0.7-0.1,1-0.1
		c1.8,0,3.3,1.2,3.8,2.9c0.6,2.1-0.7,4.2-2.8,4.8C90.6,213.1,90.2,213.2,89.9,213.2z M89.9,205.9c-0.3,0-0.6,0-0.9,0.1
		c-0.9,0.2-1.6,0.8-2,1.5c-0.4,0.8-0.6,1.7-0.3,2.5c0.4,1.4,1.7,2.4,3.2,2.4c0.3,0,0.6,0,0.9-0.1c1.8-0.5,2.8-2.3,2.3-4
		C92.7,207,91.4,205.9,89.9,205.9z"/>
</g>
<g>
	<circle fill="#F9CDDD" cx="94.7" cy="227.2" r="3.6"/>
	<path fill="#DB93B0" d="M94.7,231.1c-1.8,0-3.3-1.2-3.8-2.9c-0.3-1-0.1-2.1,0.4-3c0.5-0.9,1.4-1.6,2.4-1.8c0.3-0.1,0.7-0.1,1-0.1
		c1.8,0,3.3,1.2,3.8,2.9c0.6,2.1-0.7,4.2-2.8,4.8C95.4,231,95,231.1,94.7,231.1z M94.7,223.9c-0.3,0-0.6,0-0.9,0.1
		c-0.9,0.2-1.6,0.8-2,1.5c-0.4,0.8-0.6,1.7-0.3,2.5c0.4,1.4,1.7,2.4,3.2,2.4c0.3,0,0.6,0,0.9-0.1c1.8-0.5,2.8-2.3,2.3-4
		C97.5,224.9,96.2,223.9,94.7,223.9z"/>
</g>
<g>
	<circle fill="#F7F7CD" cx="99.5" cy="245.1" r="3.6"/>
	<path fill="#CFD394" d="M99.5,249c-1.8,0-3.3-1.2-3.8-2.9c-0.3-1-0.1-2.1,0.4-3c0.5-0.9,1.4-1.6,2.4-1.8c0.3-0.1,0.7-0.1,1-0.1
		c1.8,0,3.3,1.2,3.8,2.9c0.6,2.1-0.7,4.2-2.8,4.8C100.2,249,99.8,249,99.5,249z M99.5,241.8c-0.3,0-0.6,0-0.9,0.1
		c-0.9,0.2-1.6,0.8-2,1.5c-0.4,0.8-0.6,1.7-0.3,2.5c0.4,1.4,1.7,2.4,3.2,2.4c0.3,0,0.6,0,0.9-0.1c1.8-0.5,2.8-2.3,2.3-4
		C102.3,242.8,101,241.8,99.5,241.8z"/>
</g>
<g>
	<circle fill="#CDF9DF" cx="104.3" cy="263" r="3.6"/>
	<path fill="#93DB93" d="M104.3,266.9c-1.8,0-3.3-1.2-3.8-2.9c-0.6-2.1,0.7-4.2,2.8-4.8c0.3-0.1,0.7-0.1,1-0.1
		c1.8,0,3.3,1.2,3.8,2.9c0.6,2.1-0.7,4.2-2.8,4.8C105,266.9,104.6,266.9,104.3,266.9z M104.3,259.7c-0.3,0-0.6,0-0.9,0.1
		c-1.8,0.5-2.8,2.3-2.3,4c0.4,1.4,1.7,2.4,3.2,2.4c0.3,0,0.6,0,0.9-0.1c1.8-0.5,2.8-2.3,2.3-4C107.1,260.7,105.8,259.7,104.3,259.7z
		"/>
</g>
<g>
	<path fill="#99AABF" d="M282.8,225.3h-13.6c-0.9,0-1.5-0.7-1.5-1.5v-14.8c0-0.9,0.7-1.5,1.5-1.5h13.6c0.9,0,1.5,0.7,1.5,1.5v14.8
		C284.3,224.6,283.6,225.3,282.8,225.3z M269.2,208c-0.5,0-0.9,0.4-0.9,0.9v14.8c0,0.5,0.4,0.9,0.9,0.9h13.6c0.5,0,0.9-0.4,0.9-0.9
		v-14.8c0-0.5-0.4-0.9-0.9-0.9H269.2z"/>
</g>
<g>
	<path fill="#99AABF" d="M301.3,225.3h-13.6c-0.9,0-1.5-0.7-1.5-1.5v-14.8c0-0.9,0.7-1.5,1.5-1.5h13.6c0.9,0,1.5,0.7,1.5,1.5v14.8
		C302.9,224.6,302.2,225.3,301.3,225.3z M287.7,208c-0.5,0-0.9,0.4-0.9,0.9v14.8c0,0.5,0.4,0.9,0.9,0.9h13.6c0.5,0,0.9-0.4,0.9-0.9
		v-14.8c0-0.5-0.4-0.9-0.9-0.9H287.7z"/>
</g>
<g>
	<path fill="#99AABF" d="M319.9,225.3h-13.6c-0.9,0-1.5-0.7-1.5-1.5v-14.8c0-0.9,0.7-1.5,1.5-1.5h13.6c0.9,0,1.5,0.7,1.5,1.5v14.8
		C321.4,224.6,320.7,225.3,319.9,225.3z M306.3,208c-0.5,0-0.9,0.4-0.9,0.9v14.8c0,0.5,0.4,0.9,0.9,0.9h13.6c0.5,0,0.9-0.4,0.9-0.9
		v-14.8c0-0.5-0.4-0.9-0.9-0.9H306.3z"/>
</g>
<g>
	<path fill="#99AABF" d="M342.1,225.3h-17.3c-0.9,0-1.5-0.7-1.5-1.5v-14.8c0-0.9,0.7-1.5,1.5-1.5h17.3c0.9,0,1.5,0.7,1.5,1.5v14.8
		C343.7,224.6,343,225.3,342.1,225.3z M324.8,208c-0.5,0-0.9,0.4-0.9,0.9v14.8c0,0.5,0.4,0.9,0.9,0.9h17.3c0.5,0,0.9-0.4,0.9-0.9
		v-14.8c0-0.5-0.4-0.9-0.9-0.9H324.8z"/>
</g>
<g>
	<path fill="#99AABF" d="M433.7,225.3h-86.6c-0.9,0-1.5-0.7-1.5-1.5v-14.8c0-0.9,0.7-1.5,1.5-1.5h86.6c0.9,0,1.5,0.7,1.5,1.5v14.8
		C435.2,224.6,434.5,225.3,433.7,225.3z M347.1,208c-0.5,0-0.9,0.4-0.9,0.9v14.8c0,0.5,0.4,0.9,0.9,0.9h86.6c0.5,0,0.9-0.4,0.9-0.9
		v-14.8c0-0.5-0.4-0.9-0.9-0.9H347.1z"/>
</g>
<g>
	<path fill="#99AABF" d="M474.5,225.3h-13.6c-0.9,0-1.5-0.7-1.5-1.5v-14.8c0-0.9,0.7-1.5,1.5-1.5h13.6c0.9,0,1.5,0.7,1.5,1.5v14.8
		C476,224.6,475.3,225.3,474.5,225.3z M460.9,208c-0.5,0-0.9,0.4-0.9,0.9v14.8c0,0.5,0.4,0.9,0.9,0.9h13.6c0.5,0,0.9-0.4,0.9-0.9
		v-14.8c0-0.5-0.4-0.9-0.9-0.9H460.9z"/>
</g>
<g>
	<path fill="#99AABF" d="M455.9,225.3h-17.3c-0.9,0-1.5-0.7-1.5-1.5v-14.8c0-0.9,0.7-1.5,1.5-1.5h17.3c0.9,0,1.5,0.7,1.5,1.5v14.8
		C457.5,224.6,456.8,225.3,455.9,225.3z M438.6,208c-0.5,0-0.9,0.4-0.9,0.9v14.8c0,0.5,0.4,0.9,0.9,0.9h17.3c0.5,0,0.9-0.4,0.9-0.9
		v-14.8c0-0.5-0.4-0.9-0.9-0.9H438.6z"/>
</g>
<g>
	<path fill="#99AABF" d="M511.6,225.3H498c-0.9,0-1.5-0.7-1.5-1.5v-14.8c0-0.9,0.7-1.5,1.5-1.5h13.6c0.9,0,1.5,0.7,1.5,1.5v14.8
		C513.1,224.6,512.4,225.3,511.6,225.3z M498,208c-0.5,0-0.9,0.4-0.9,0.9v14.8c0,0.5,0.4,0.9,0.9,0.9h13.6c0.5,0,0.9-0.4,0.9-0.9
		v-14.8c0-0.5-0.4-0.9-0.9-0.9H498z"/>
</g>
<g>
	<path fill="#99AABF" d="M493,225.3h-13.6c-0.9,0-1.5-0.7-1.5-1.5v-6.2c0-0.9,0.7-1.5,1.5-1.5H493c0.9,0,1.5,0.7,1.5,1.5v6.2
		C494.6,224.6,493.9,225.3,493,225.3z M479.4,216.6c-0.5,0-0.9,0.4-0.9,0.9v6.2c0,0.5,0.4,0.9,0.9,0.9H493c0.5,0,0.9-0.4,0.9-0.9
		v-6.2c0-0.5-0.4-0.9-0.9-0.9H479.4z"/>
</g>
<g>
	<path fill="#99AABF" d="M530.1,225.3h-13.6c-0.9,0-1.5-0.7-1.5-1.5v-6.2c0-0.9,0.7-1.5,1.5-1.5h13.6c0.9,0,1.5,0.7,1.5,1.5v6.2
		C531.7,224.6,531,225.3,530.1,225.3z M516.5,216.6c-0.5,0-0.9,0.4-0.9,0.9v6.2c0,0.5,0.4,0.9,0.9,0.9h13.6c0.5,0,0.9-0.4,0.9-0.9
		v-6.2c0-0.5-0.4-0.9-0.9-0.9H516.5z"/>
</g>
<g>
	<path fill="#99AABF" d="M305.6,205.5h-36.5c-0.9,0-1.5-0.7-1.5-1.5v-13c0-0.9,0.7-1.5,1.5-1.5h36.5c0.9,0,1.5,0.7,1.5,1.5v13
		C307.2,204.8,306.5,205.5,305.6,205.5z M269.2,190c-0.5,0-0.9,0.4-0.9,0.9v13c0,0.5,0.4,0.9,0.9,0.9h36.5c0.5,0,0.9-0.4,0.9-0.9
		v-13c0-0.5-0.4-0.9-0.9-0.9H269.2z"/>
</g>
<g>
	<path fill="#99AABF" d="M324.2,205.5h-13.6c-0.9,0-1.5-0.7-1.5-1.5v-13c0-0.9,0.7-1.5,1.5-1.5h13.6c0.9,0,1.5,0.7,1.5,1.5v13
		C325.7,204.8,325.1,205.5,324.2,205.5z M310.6,190c-0.5,0-0.9,0.4-0.9,0.9v13c0,0.5,0.4,0.9,0.9,0.9h13.6c0.5,0,0.9-0.4,0.9-0.9
		v-13c0-0.5-0.4-0.9-0.9-0.9H310.6z"/>
</g>
<g>
	<path fill="#99AABF" d="M342.8,205.5h-13.6c-0.9,0-1.5-0.7-1.5-1.5v-13c0-0.9,0.7-1.5,1.5-1.5h13.6c0.9,0,1.5,0.7,1.5,1.5v13
		C344.3,204.8,343.6,205.5,342.8,205.5z M329.1,190c-0.5,0-0.9,0.4-0.9,0.9v13c0,0.5,0.4,0.9,0.9,0.9h13.6c0.5,0,0.9-0.4,0.9-0.9
		v-13c0-0.5-0.4-0.9-0.9-0.9H329.1z"/>
</g>
<g>
	<path fill="#99AABF" d="M361.3,205.5h-13.6c-0.9,0-1.5-0.7-1.5-1.5v-13c0-0.9,0.7-1.5,1.5-1.5h13.6c0.9,0,1.5,0.7,1.5,1.5v13
		C362.8,204.8,362.2,205.5,361.3,205.5z M347.7,190c-0.5,0-0.9,0.4-0.9,0.9v13c0,0.5,0.4,0.9,0.9,0.9h13.6c0.5,0,0.9-0.4,0.9-0.9
		v-13c0-0.5-0.4-0.9-0.9-0.9H347.7z"/>
</g>
<g>
	<path fill="#99AABF" d="M379.9,205.5h-13.6c-0.9,0-1.5-0.7-1.5-1.5v-13c0-0.9,0.7-1.5,1.5-1.5h13.6c0.9,0,1.5,0.7,1.5,1.5v13
		C381.4,204.8,380.7,205.5,379.9,205.5z M366.2,190c-0.5,0-0.9,0.4-0.9,0.9v13c0,0.5,0.4,0.9,0.9,0.9h13.6c0.5,0,0.9-0.4,0.9-0.9
		v-13c0-0.5-0.4-0.9-0.9-0.9H366.2z"/>
</g>
<g>
	<path fill="#99AABF" d="M398.4,205.5h-13.6c-0.9,0-1.5-0.7-1.5-1.5v-13c0-0.9,0.7-1.5,1.5-1.5h13.6c0.9,0,1.5,0.7,1.5,1.5v13
		C400,204.8,399.3,205.5,398.4,205.5z M384.8,190c-0.5,0-0.9,0.4-0.9,0.9v13c0,0.5,0.4,0.9,0.9,0.9h13.6c0.5,0,0.9-0.4,0.9-0.9v-13
		c0-0.5-0.4-0.9-0.9-0.9H384.8z"/>
</g>
<g>
	<path fill="#99AABF" d="M417,205.5h-13.6c-0.9,0-1.5-0.7-1.5-1.5v-13c0-0.9,0.7-1.5,1.5-1.5H417c0.9,0,1.5,0.7,1.5,1.5v13
		C418.5,204.8,417.8,205.5,417,205.5z M403.4,190c-0.5,0-0.9,0.4-0.9,0.9v13c0,0.5,0.4,0.9,0.9,0.9H417c0.5,0,0.9-0.4,0.9-0.9v-13
		c0-0.5-0.4-0.9-0.9-0.9H403.4z"/>
</g>
<g>
	<path fill="#99AABF" d="M435.5,205.5h-13.6c-0.9,0-1.5-0.7-1.5-1.5v-13c0-0.9,0.7-1.5,1.5-1.5h13.6c0.9,0,1.5,0.7,1.5,1.5v13
		C437.1,204.8,436.4,205.5,435.5,205.5z M421.9,190c-0.5,0-0.9,0.4-0.9,0.9v13c0,0.5,0.4,0.9,0.9,0.9h13.6c0.5,0,0.9-0.4,0.9-0.9
		v-13c0-0.5-0.4-0.9-0.9-0.9H421.9z"/>
</g>
<g>
	<path fill="#99AABF" d="M454.1,205.5h-13.6c-0.9,0-1.5-0.7-1.5-1.5v-13c0-0.9,0.7-1.5,1.5-1.5h13.6c0.9,0,1.5,0.7,1.5,1.5v13
		C455.6,204.8,454.9,205.5,454.1,205.5z M440.5,190c-0.5,0-0.9,0.4-0.9,0.9v13c0,0.5,0.4,0.9,0.9,0.9h13.6c0.5,0,0.9-0.4,0.9-0.9
		v-13c0-0.5-0.4-0.9-0.9-0.9H440.5z"/>
</g>
<g>
	<path fill="#99AABF" d="M472.6,205.5H459c-0.9,0-1.5-0.7-1.5-1.5v-13c0-0.9,0.7-1.5,1.5-1.5h13.6c0.9,0,1.5,0.7,1.5,1.5v13
		C474.2,204.8,473.5,205.5,472.6,205.5z M459,190c-0.5,0-0.9,0.4-0.9,0.9v13c0,0.5,0.4,0.9,0.9,0.9h13.6c0.5,0,0.9-0.4,0.9-0.9v-13
		c0-0.5-0.4-0.9-0.9-0.9H459z"/>
</g>
<g>
	<path fill="#99AABF" d="M491.2,205.5h-13.6c-0.9,0-1.5-0.7-1.5-1.5v-13c0-0.9,0.7-1.5,1.5-1.5h13.6c0.9,0,1.5,0.7,1.5,1.5v13
		C492.7,204.8,492,205.5,491.2,205.5z M477.6,190c-0.5,0-0.9,0.4-0.9,0.9v13c0,0.5,0.4,0.9,0.9,0.9h13.6c0.5,0,0.9-0.4,0.9-0.9v-13
		c0-0.5-0.4-0.9-0.9-0.9H477.6z"/>
</g>
<g>
	<path fill="#99AABF" d="M530.1,205.5h-34c-0.9,0-1.5-0.7-1.5-1.5v-13c0-0.9,0.7-1.5,1.5-1.5h34c0.9,0,1.5,0.7,1.5,1.5v13
		C531.7,204.8,531,205.5,530.1,205.5z M496.1,190c-0.5,0-0.9,0.4-0.9,0.9v13c0,0.5,0.4,0.9,0.9,0.9h34c0.5,0,0.9-0.4,0.9-0.9v-13
		c0-0.5-0.4-0.9-0.9-0.9H496.1z"/>
</g>
<g>
	<path fill="#99AABF" d="M296.4,187.6h-27.2c-0.9,0-1.5-0.7-1.5-1.5v-13c0-0.9,0.7-1.5,1.5-1.5h27.2c0.9,0,1.5,0.7,1.5,1.5v13
		C297.9,186.9,297.2,187.6,296.4,187.6z M269.2,172.1c-0.5,0-0.9,0.4-0.9,0.9v13c0,0.5,0.4,0.9,0.9,0.9h27.2c0.5,0,0.9-0.4,0.9-0.9
		v-13c0-0.5-0.4-0.9-0.9-0.9H269.2z"/>
</g>
<g>
	<path fill="#99AABF" d="M314.9,187.6h-13.6c-0.9,0-1.5-0.7-1.5-1.5v-13c0-0.9,0.7-1.5,1.5-1.5h13.6c0.9,0,1.5,0.7,1.5,1.5v13
		C316.5,186.9,315.8,187.6,314.9,187.6z M301.3,172.1c-0.5,0-0.9,0.4-0.9,0.9v13c0,0.5,0.4,0.9,0.9,0.9h13.6c0.5,0,0.9-0.4,0.9-0.9
		v-13c0-0.5-0.4-0.9-0.9-0.9H301.3z"/>
</g>
<g>
	<path fill="#99AABF" d="M333.5,187.6h-13.6c-0.9,0-1.5-0.7-1.5-1.5v-13c0-0.9,0.7-1.5,1.5-1.5h13.6c0.9,0,1.5,0.7,1.5,1.5v13
		C335,186.9,334.3,187.6,333.5,187.6z M319.9,172.1c-0.5,0-0.9,0.4-0.9,0.9v13c0,0.5,0.4,0.9,0.9,0.9h13.6c0.5,0,0.9-0.4,0.9-0.9
		v-13c0-0.5-0.4-0.9-0.9-0.9H319.9z"/>
</g>
<g>
	<path fill="#99AABF" d="M352,187.6h-13.6c-0.9,0-1.5-0.7-1.5-1.5v-13c0-0.9,0.7-1.5,1.5-1.5H352c0.9,0,1.5,0.7,1.5,1.5v13
		C353.6,186.9,352.9,187.6,352,187.6z M338.4,172.1c-0.5,0-0.9,0.4-0.9,0.9v13c0,0.5,0.4,0.9,0.9,0.9H352c0.5,0,0.9-0.4,0.9-0.9v-13
		c0-0.5-0.4-0.9-0.9-0.9H338.4z"/>
</g>
<g>
	<path fill="#99AABF" d="M370.6,187.6H357c-0.9,0-1.5-0.7-1.5-1.5v-13c0-0.9,0.7-1.5,1.5-1.5h13.6c0.9,0,1.5,0.7,1.5,1.5v13
		C372.1,186.9,371.4,187.6,370.6,187.6z M357,172.1c-0.5,0-0.9,0.4-0.9,0.9v13c0,0.5,0.4,0.9,0.9,0.9h13.6c0.5,0,0.9-0.4,0.9-0.9
		v-13c0-0.5-0.4-0.9-0.9-0.9H357z"/>
</g>
<g>
	<path fill="#99AABF" d="M389.1,187.6h-13.6c-0.9,0-1.5-0.7-1.5-1.5v-13c0-0.9,0.7-1.5,1.5-1.5h13.6c0.9,0,1.5,0.7,1.5,1.5v13
		C390.7,186.9,390,187.6,389.1,187.6z M375.5,172.1c-0.5,0-0.9,0.4-0.9,0.9v13c0,0.5,0.4,0.9,0.9,0.9h13.6c0.5,0,0.9-0.4,0.9-0.9
		v-13c0-0.5-0.4-0.9-0.9-0.9H375.5z"/>
</g>
<g>
	<path fill="#99AABF" d="M407.7,187.6h-13.6c-0.9,0-1.5-0.7-1.5-1.5v-13c0-0.9,0.7-1.5,1.5-1.5h13.6c0.9,0,1.5,0.7,1.5,1.5v13
		C409.2,186.9,408.5,187.6,407.7,187.6z M394.1,172.1c-0.5,0-0.9,0.4-0.9,0.9v13c0,0.5,0.4,0.9,0.9,0.9h13.6c0.5,0,0.9-0.4,0.9-0.9
		v-13c0-0.5-0.4-0.9-0.9-0.9H394.1z"/>
</g>
<g>
	<path fill="#99AABF" d="M426.2,187.6h-13.6c-0.9,0-1.5-0.7-1.5-1.5v-13c0-0.9,0.7-1.5,1.5-1.5h13.6c0.9,0,1.5,0.7,1.5,1.5v13
		C427.8,186.9,427.1,187.6,426.2,187.6z M412.6,172.1c-0.5,0-0.9,0.4-0.9,0.9v13c0,0.5,0.4,0.9,0.9,0.9h13.6c0.5,0,0.9-0.4,0.9-0.9
		v-13c0-0.5-0.4-0.9-0.9-0.9H412.6z"/>
</g>
<g>
	<path fill="#99AABF" d="M444.8,187.6h-13.6c-0.9,0-1.5-0.7-1.5-1.5v-13c0-0.9,0.7-1.5,1.5-1.5h13.6c0.9,0,1.5,0.7,1.5,1.5v13
		C446.3,186.9,445.6,187.6,444.8,187.6z M431.2,172.1c-0.5,0-0.9,0.4-0.9,0.9v13c0,0.5,0.4,0.9,0.9,0.9h13.6c0.5,0,0.9-0.4,0.9-0.9
		v-13c0-0.5-0.4-0.9-0.9-0.9H431.2z"/>
</g>
<g>
	<path fill="#99AABF" d="M463.3,187.6h-13.6c-0.9,0-1.5-0.7-1.5-1.5v-13c0-0.9,0.7-1.5,1.5-1.5h13.6c0.9,0,1.5,0.7,1.5,1.5v13
		C464.9,186.9,464.2,187.6,463.3,187.6z M449.7,172.1c-0.5,0-0.9,0.4-0.9,0.9v13c0,0.5,0.4,0.9,0.9,0.9h13.6c0.5,0,0.9-0.4,0.9-0.9
		v-13c0-0.5-0.4-0.9-0.9-0.9H449.7z"/>
</g>
<g>
	<path fill="#99AABF" d="M481.9,187.6h-13.6c-0.9,0-1.5-0.7-1.5-1.5v-13c0-0.9,0.7-1.5,1.5-1.5h13.6c0.9,0,1.5,0.7,1.5,1.5v13
		C483.4,186.9,482.7,187.6,481.9,187.6z M468.3,172.1c-0.5,0-0.9,0.4-0.9,0.9v13c0,0.5,0.4,0.9,0.9,0.9h13.6c0.5,0,0.9-0.4,0.9-0.9
		v-13c0-0.5-0.4-0.9-0.9-0.9H468.3z"/>
</g>
<g>
	<path fill="#99AABF" d="M530.1,187.6h-24.7c-0.9,0-1.5-0.7-1.5-1.5v-13c0-0.9,0.7-1.5,1.5-1.5h24.7c0.9,0,1.5,0.7,1.5,1.5v13
		C531.7,186.9,531,187.6,530.1,187.6z M505.4,172.1c-0.5,0-0.9,0.4-0.9,0.9v13c0,0.5,0.4,0.9,0.9,0.9h24.7c0.5,0,0.9-0.4,0.9-0.9
		v-13c0-0.5-0.4-0.9-0.9-0.9H505.4z"/>
</g>
<g>
	<path fill="#99AABF" d="M500.4,187.6h-13.6c-0.9,0-1.5-0.7-1.5-1.5v-13c0-0.9,0.7-1.5,1.5-1.5h13.6c0.9,0,1.5,0.7,1.5,1.5v13
		C502,186.9,501.3,187.6,500.4,187.6z M486.8,172.1c-0.5,0-0.9,0.4-0.9,0.9v13c0,0.5,0.4,0.9,0.9,0.9h13.6c0.5,0,0.9-0.4,0.9-0.9
		v-13c0-0.5-0.4-0.9-0.9-0.9H486.8z"/>
</g>
<g>
	<path fill="#99AABF" d="M288.9,169.6h-19.8c-0.9,0-1.5-0.7-1.5-1.5v-13c0-0.9,0.7-1.5,1.5-1.5h19.8c0.9,0,1.5,0.7,1.5,1.5v13
		C290.5,168.9,289.8,169.6,288.9,169.6z M269.2,154.2c-0.5,0-0.9,0.4-0.9,0.9v13c0,0.5,0.4,0.9,0.9,0.9h19.8c0.5,0,0.9-0.4,0.9-0.9
		v-13c0-0.5-0.4-0.9-0.9-0.9H269.2z"/>
</g>
<g>
	<path fill="#99AABF" d="M307.5,169.6h-13.6c-0.9,0-1.5-0.7-1.5-1.5v-13c0-0.9,0.7-1.5,1.5-1.5h13.6c0.9,0,1.5,0.7,1.5,1.5v13
		C309,168.9,308.4,169.6,307.5,169.6z M293.9,154.2c-0.5,0-0.9,0.4-0.9,0.9v13c0,0.5,0.4,0.9,0.9,0.9h13.6c0.5,0,0.9-0.4,0.9-0.9
		v-13c0-0.5-0.4-0.9-0.9-0.9H293.9z"/>
</g>
<g>
	<path fill="#99AABF" d="M326.1,169.6h-13.6c-0.9,0-1.5-0.7-1.5-1.5v-13c0-0.9,0.7-1.5,1.5-1.5h13.6c0.9,0,1.5,0.7,1.5,1.5v13
		C327.6,168.9,326.9,169.6,326.1,169.6z M312.4,154.2c-0.5,0-0.9,0.4-0.9,0.9v13c0,0.5,0.4,0.9,0.9,0.9h13.6c0.5,0,0.9-0.4,0.9-0.9
		v-13c0-0.5-0.4-0.9-0.9-0.9H312.4z"/>
</g>
<g>
	<path fill="#99AABF" d="M344.6,169.6H331c-0.9,0-1.5-0.7-1.5-1.5v-13c0-0.9,0.7-1.5,1.5-1.5h13.6c0.9,0,1.5,0.7,1.5,1.5v13
		C346.2,168.9,345.5,169.6,344.6,169.6z M331,154.2c-0.5,0-0.9,0.4-0.9,0.9v13c0,0.5,0.4,0.9,0.9,0.9h13.6c0.5,0,0.9-0.4,0.9-0.9
		v-13c0-0.5-0.4-0.9-0.9-0.9H331z"/>
</g>
<g>
	<path fill="#99AABF" d="M363.2,169.6h-13.6c-0.9,0-1.5-0.7-1.5-1.5v-13c0-0.9,0.7-1.5,1.5-1.5h13.6c0.9,0,1.5,0.7,1.5,1.5v13
		C364.7,168.9,364,169.6,363.2,169.6z M349.6,154.2c-0.5,0-0.9,0.4-0.9,0.9v13c0,0.5,0.4,0.9,0.9,0.9h13.6c0.5,0,0.9-0.4,0.9-0.9
		v-13c0-0.5-0.4-0.9-0.9-0.9H349.6z"/>
</g>
<g>
	<path fill="#99AABF" d="M381.7,169.6h-13.6c-0.9,0-1.5-0.7-1.5-1.5v-13c0-0.9,0.7-1.5,1.5-1.5h13.6c0.9,0,1.5,0.7,1.5,1.5v13
		C383.3,168.9,382.6,169.6,381.7,169.6z M368.1,154.2c-0.5,0-0.9,0.4-0.9,0.9v13c0,0.5,0.4,0.9,0.9,0.9h13.6c0.5,0,0.9-0.4,0.9-0.9
		v-13c0-0.5-0.4-0.9-0.9-0.9H368.1z"/>
</g>
<g>
	<path fill="#99AABF" d="M400.3,169.6h-13.6c-0.9,0-1.5-0.7-1.5-1.5v-13c0-0.9,0.7-1.5,1.5-1.5h13.6c0.9,0,1.5,0.7,1.5,1.5v13
		C401.8,168.9,401.1,169.6,400.3,169.6z M386.7,154.2c-0.5,0-0.9,0.4-0.9,0.9v13c0,0.5,0.4,0.9,0.9,0.9h13.6c0.5,0,0.9-0.4,0.9-0.9
		v-13c0-0.5-0.4-0.9-0.9-0.9H386.7z"/>
</g>
<g>
	<path fill="#99AABF" d="M418.8,169.6h-13.6c-0.9,0-1.5-0.7-1.5-1.5v-13c0-0.9,0.7-1.5,1.5-1.5h13.6c0.9,0,1.5,0.7,1.5,1.5v13
		C420.4,168.9,419.7,169.6,418.8,169.6z M405.2,154.2c-0.5,0-0.9,0.4-0.9,0.9v13c0,0.5,0.4,0.9,0.9,0.9h13.6c0.5,0,0.9-0.4,0.9-0.9
		v-13c0-0.5-0.4-0.9-0.9-0.9H405.2z"/>
</g>
<g>
	<path fill="#99AABF" d="M437.4,169.6h-13.6c-0.9,0-1.5-0.7-1.5-1.5v-13c0-0.9,0.7-1.5,1.5-1.5h13.6c0.9,0,1.5,0.7,1.5,1.5v13
		C438.9,168.9,438.2,169.6,437.4,169.6z M423.8,154.2c-0.5,0-0.9,0.4-0.9,0.9v13c0,0.5,0.4,0.9,0.9,0.9h13.6c0.5,0,0.9-0.4,0.9-0.9
		v-13c0-0.5-0.4-0.9-0.9-0.9H423.8z"/>
</g>
<g>
	<path fill="#99AABF" d="M455.9,169.6h-13.6c-0.9,0-1.5-0.7-1.5-1.5v-13c0-0.9,0.7-1.5,1.5-1.5h13.6c0.9,0,1.5,0.7,1.5,1.5v13
		C457.5,168.9,456.8,169.6,455.9,169.6z M442.3,154.2c-0.5,0-0.9,0.4-0.9,0.9v13c0,0.5,0.4,0.9,0.9,0.9h13.6c0.5,0,0.9-0.4,0.9-0.9
		v-13c0-0.5-0.4-0.9-0.9-0.9H442.3z"/>
</g>
<g>
	<path fill="#99AABF" d="M474.5,169.6h-13.6c-0.9,0-1.5-0.7-1.5-1.5v-13c0-0.9,0.7-1.5,1.5-1.5h13.6c0.9,0,1.5,0.7,1.5,1.5v13
		C476,168.9,475.3,169.6,474.5,169.6z M460.9,154.2c-0.5,0-0.9,0.4-0.9,0.9v13c0,0.5,0.4,0.9,0.9,0.9h13.6c0.5,0,0.9-0.4,0.9-0.9
		v-13c0-0.5-0.4-0.9-0.9-0.9H460.9z"/>
</g>
<g>
	<path fill="#99AABF" d="M493,169.6h-13.6c-0.9,0-1.5-0.7-1.5-1.5v-13c0-0.9,0.7-1.5,1.5-1.5H493c0.9,0,1.5,0.7,1.5,1.5v13
		C494.6,168.9,493.9,169.6,493,169.6z M479.4,154.2c-0.5,0-0.9,0.4-0.9,0.9v13c0,0.5,0.4,0.9,0.9,0.9H493c0.5,0,0.9-0.4,0.9-0.9v-13
		c0-0.5-0.4-0.9-0.9-0.9H479.4z"/>
</g>
<g>
	<path fill="#99AABF" d="M511.6,169.6H498c-0.9,0-1.5-0.7-1.5-1.5v-13c0-0.9,0.7-1.5,1.5-1.5h13.6c0.9,0,1.5,0.7,1.5,1.5v13
		C513.1,168.9,512.4,169.6,511.6,169.6z M498,154.2c-0.5,0-0.9,0.4-0.9,0.9v13c0,0.5,0.4,0.9,0.9,0.9h13.6c0.5,0,0.9-0.4,0.9-0.9
		v-13c0-0.5-0.4-0.9-0.9-0.9H498z"/>
</g>
<g>
	<path fill="#99AABF" d="M530.1,169.6h-13.6c-0.9,0-1.5-0.7-1.5-1.5v-13c0-0.9,0.7-1.5,1.5-1.5h13.6c0.9,0,1.5,0.7,1.5,1.5v13
		C531.7,168.9,531,169.6,530.1,169.6z M516.5,154.2c-0.5,0-0.9,0.4-0.9,0.9v13c0,0.5,0.4,0.9,0.9,0.9h13.6c0.5,0,0.9-0.4,0.9-0.9
		v-13c0-0.5-0.4-0.9-0.9-0.9H516.5z"/>
</g>
<g>
	<path fill="#99AABF" d="M282.8,151.7h-13.6c-0.9,0-1.5-0.7-1.5-1.5v-13c0-0.9,0.7-1.5,1.5-1.5h13.6c0.9,0,1.5,0.7,1.5,1.5v13
		C284.3,151,283.6,151.7,282.8,151.7z M269.2,136.2c-0.5,0-0.9,0.4-0.9,0.9v13c0,0.5,0.4,0.9,0.9,0.9h13.6c0.5,0,0.9-0.4,0.9-0.9
		v-13c0-0.5-0.4-0.9-0.9-0.9H269.2z"/>
</g>
<g>
	<path fill="#99AABF" d="M301.3,151.7h-13.6c-0.9,0-1.5-0.7-1.5-1.5v-13c0-0.9,0.7-1.5,1.5-1.5h13.6c0.9,0,1.5,0.7,1.5,1.5v13
		C302.9,151,302.2,151.7,301.3,151.7z M287.7,136.2c-0.5,0-0.9,0.4-0.9,0.9v13c0,0.5,0.4,0.9,0.9,0.9h13.6c0.5,0,0.9-0.4,0.9-0.9
		v-13c0-0.5-0.4-0.9-0.9-0.9H287.7z"/>
</g>
<g>
	<path fill="#99AABF" d="M319.9,151.7h-13.6c-0.9,0-1.5-0.7-1.5-1.5v-13c0-0.9,0.7-1.5,1.5-1.5h13.6c0.9,0,1.5,0.7,1.5,1.5v13
		C321.4,151,320.7,151.7,319.9,151.7z M306.3,136.2c-0.5,0-0.9,0.4-0.9,0.9v13c0,0.5,0.4,0.9,0.9,0.9h13.6c0.5,0,0.9-0.4,0.9-0.9
		v-13c0-0.5-0.4-0.9-0.9-0.9H306.3z"/>
</g>
<g>
	<path fill="#99AABF" d="M338.4,151.7h-13.6c-0.9,0-1.5-0.7-1.5-1.5v-13c0-0.9,0.7-1.5,1.5-1.5h13.6c0.9,0,1.5,0.7,1.5,1.5v13
		C340,151,339.3,151.7,338.4,151.7z M324.8,136.2c-0.5,0-0.9,0.4-0.9,0.9v13c0,0.5,0.4,0.9,0.9,0.9h13.6c0.5,0,0.9-0.4,0.9-0.9v-13
		c0-0.5-0.4-0.9-0.9-0.9H324.8z"/>
</g>
<g>
	<path fill="#99AABF" d="M357,151.7h-13.6c-0.9,0-1.5-0.7-1.5-1.5v-13c0-0.9,0.7-1.5,1.5-1.5H357c0.9,0,1.5,0.7,1.5,1.5v13
		C358.5,151,357.8,151.7,357,151.7z M343.4,136.2c-0.5,0-0.9,0.4-0.9,0.9v13c0,0.5,0.4,0.9,0.9,0.9H357c0.5,0,0.9-0.4,0.9-0.9v-13
		c0-0.5-0.4-0.9-0.9-0.9H343.4z"/>
</g>
<g>
	<path fill="#99AABF" d="M375.5,151.7h-13.6c-0.9,0-1.5-0.7-1.5-1.5v-13c0-0.9,0.7-1.5,1.5-1.5h13.6c0.9,0,1.5,0.7,1.5,1.5v13
		C377.1,151,376.4,151.7,375.5,151.7z M361.9,136.2c-0.5,0-0.9,0.4-0.9,0.9v13c0,0.5,0.4,0.9,0.9,0.9h13.6c0.5,0,0.9-0.4,0.9-0.9
		v-13c0-0.5-0.4-0.9-0.9-0.9H361.9z"/>
</g>
<g>
	<path fill="#99AABF" d="M394.1,151.7h-13.6c-0.9,0-1.5-0.7-1.5-1.5v-13c0-0.9,0.7-1.5,1.5-1.5h13.6c0.9,0,1.5,0.7,1.5,1.5v13
		C395.6,151,394.9,151.7,394.1,151.7z M380.5,136.2c-0.5,0-0.9,0.4-0.9,0.9v13c0,0.5,0.4,0.9,0.9,0.9h13.6c0.5,0,0.9-0.4,0.9-0.9
		v-13c0-0.5-0.4-0.9-0.9-0.9H380.5z"/>
</g>
<g>
	<path fill="#99AABF" d="M412.6,151.7H399c-0.9,0-1.5-0.7-1.5-1.5v-13c0-0.9,0.7-1.5,1.5-1.5h13.6c0.9,0,1.5,0.7,1.5,1.5v13
		C414.2,151,413.5,151.7,412.6,151.7z M399,136.2c-0.5,0-0.9,0.4-0.9,0.9v13c0,0.5,0.4,0.9,0.9,0.9h13.6c0.5,0,0.9-0.4,0.9-0.9v-13
		c0-0.5-0.4-0.9-0.9-0.9H399z"/>
</g>
<g>
	<path fill="#99AABF" d="M431.2,151.7h-13.6c-0.9,0-1.5-0.7-1.5-1.5v-13c0-0.9,0.7-1.5,1.5-1.5h13.6c0.9,0,1.5,0.7,1.5,1.5v13
		C432.7,151,432,151.7,431.2,151.7z M417.6,136.2c-0.5,0-0.9,0.4-0.9,0.9v13c0,0.5,0.4,0.9,0.9,0.9h13.6c0.5,0,0.9-0.4,0.9-0.9v-13
		c0-0.5-0.4-0.9-0.9-0.9H417.6z"/>
</g>
<g>
	<path fill="#99AABF" d="M449.7,151.7h-13.6c-0.9,0-1.5-0.7-1.5-1.5v-13c0-0.9,0.7-1.5,1.5-1.5h13.6c0.9,0,1.5,0.7,1.5,1.5v13
		C451.3,151,450.6,151.7,449.7,151.7z M436.1,136.2c-0.5,0-0.9,0.4-0.9,0.9v13c0,0.5,0.4,0.9,0.9,0.9h13.6c0.5,0,0.9-0.4,0.9-0.9
		v-13c0-0.5-0.4-0.9-0.9-0.9H436.1z"/>
</g>
<g>
	<path fill="#99AABF" d="M468.3,151.7h-13.6c-0.9,0-1.5-0.7-1.5-1.5v-13c0-0.9,0.7-1.5,1.5-1.5h13.6c0.9,0,1.5,0.7,1.5,1.5v13
		C469.8,151,469.1,151.7,468.3,151.7z M454.7,136.2c-0.5,0-0.9,0.4-0.9,0.9v13c0,0.5,0.4,0.9,0.9,0.9h13.6c0.5,0,0.9-0.4,0.9-0.9
		v-13c0-0.5-0.4-0.9-0.9-0.9H454.7z"/>
</g>
<g>
	<path fill="#99AABF" d="M486.8,151.7h-13.6c-0.9,0-1.5-0.7-1.5-1.5v-13c0-0.9,0.7-1.5,1.5-1.5h13.6c0.9,0,1.5,0.7,1.5,1.5v13
		C488.4,151,487.7,151.7,486.8,151.7z M473.2,136.2c-0.5,0-0.9,0.4-0.9,0.9v13c0,0.5,0.4,0.9,0.9,0.9h13.6c0.5,0,0.9-0.4,0.9-0.9
		v-13c0-0.5-0.4-0.9-0.9-0.9H473.2z"/>
</g>
<g>
	<path fill="#99AABF" d="M505.4,151.7h-13.6c-0.9,0-1.5-0.7-1.5-1.5v-13c0-0.9,0.7-1.5,1.5-1.5h13.6c0.9,0,1.5,0.7,1.5,1.5v13
		C506.9,151,506.2,151.7,505.4,151.7z M491.8,136.2c-0.5,0-0.9,0.4-0.9,0.9v13c0,0.5,0.4,0.9,0.9,0.9h13.6c0.5,0,0.9-0.4,0.9-0.9
		v-13c0-0.5-0.4-0.9-0.9-0.9H491.8z"/>
</g>
<g>
	<path fill="#99AABF" d="M530.1,151.7h-19.8c-0.9,0-1.5-0.7-1.5-1.5v-13c0-0.9,0.7-1.5,1.5-1.5h19.8c0.9,0,1.5,0.7,1.5,1.5v13
		C531.7,151,531,151.7,530.1,151.7z M510.3,136.2c-0.5,0-0.9,0.4-0.9,0.9v13c0,0.5,0.4,0.9,0.9,0.9h19.8c0.5,0,0.9-0.4,0.9-0.9v-13
		c0-0.5-0.4-0.9-0.9-0.9H510.3z"/>
</g>
<g>
	<path fill="#99AABF" d="M530.1,133.8h-13.6c-0.9,0-1.5-0.7-1.5-1.5V126c0-0.9,0.7-1.5,1.5-1.5h13.6c0.9,0,1.5,0.7,1.5,1.5v6.2
		C531.7,133.1,531,133.8,530.1,133.8z M516.5,125.1c-0.5,0-0.9,0.4-0.9,0.9v6.2c0,0.5,0.4,0.9,0.9,0.9h13.6c0.5,0,0.9-0.4,0.9-0.9
		V126c0-0.5-0.4-0.9-0.9-0.9H516.5z"/>
</g>
<g>
	<path fill="#99AABF" d="M511.1,133.8h-13.6c-0.9,0-1.5-0.7-1.5-1.5V126c0-0.9,0.7-1.5,1.5-1.5h13.6c0.9,0,1.5,0.7,1.5,1.5v6.2
		C512.6,133.1,512,133.8,511.1,133.8z M497.5,125.1c-0.5,0-0.9,0.4-0.9,0.9v6.2c0,0.5,0.4,0.9,0.9,0.9h13.6c0.5,0,0.9-0.4,0.9-0.9
		V126c0-0.5-0.4-0.9-0.9-0.9H497.5z"/>
</g>
<g>
	<path fill="#99AABF" d="M492.1,133.8h-13.6c-0.9,0-1.5-0.7-1.5-1.5V126c0-0.9,0.7-1.5,1.5-1.5h13.6c0.9,0,1.5,0.7,1.5,1.5v6.2
		C493.6,133.1,492.9,133.8,492.1,133.8z M478.5,125.1c-0.5,0-0.9,0.4-0.9,0.9v6.2c0,0.5,0.4,0.9,0.9,0.9h13.6c0.5,0,0.9-0.4,0.9-0.9
		V126c0-0.5-0.4-0.9-0.9-0.9H478.5z"/>
</g>
<g>
	<path fill="#99AABF" d="M473,133.8h-13.6c-0.9,0-1.5-0.7-1.5-1.5V126c0-0.9,0.7-1.5,1.5-1.5H473c0.9,0,1.5,0.7,1.5,1.5v6.2
		C474.6,133.1,473.9,133.8,473,133.8z M459.4,125.1c-0.5,0-0.9,0.4-0.9,0.9v6.2c0,0.5,0.4,0.9,0.9,0.9H473c0.5,0,0.9-0.4,0.9-0.9
		V126c0-0.5-0.4-0.9-0.9-0.9H459.4z"/>
</g>
<g>
	<path fill="#99AABF" d="M454,133.8h-13.6c-0.9,0-1.5-0.7-1.5-1.5V126c0-0.9,0.7-1.5,1.5-1.5H454c0.9,0,1.5,0.7,1.5,1.5v6.2
		C455.6,133.1,454.9,133.8,454,133.8z M440.4,125.1c-0.5,0-0.9,0.4-0.9,0.9v6.2c0,0.5,0.4,0.9,0.9,0.9H454c0.5,0,0.9-0.4,0.9-0.9
		V126c0-0.5-0.4-0.9-0.9-0.9H440.4z"/>
</g>
<g>
	<path fill="#99AABF" d="M435,133.8h-13.6c-0.9,0-1.5-0.7-1.5-1.5V126c0-0.9,0.7-1.5,1.5-1.5H435c0.9,0,1.5,0.7,1.5,1.5v6.2
		C436.5,133.1,435.8,133.8,435,133.8z M421.4,125.1c-0.5,0-0.9,0.4-0.9,0.9v6.2c0,0.5,0.4,0.9,0.9,0.9H435c0.5,0,0.9-0.4,0.9-0.9
		V126c0-0.5-0.4-0.9-0.9-0.9H421.4z"/>
</g>
<g>
	<path fill="#99AABF" d="M416,133.8h-13.6c-0.9,0-1.5-0.7-1.5-1.5V126c0-0.9,0.7-1.5,1.5-1.5H416c0.9,0,1.5,0.7,1.5,1.5v6.2
		C417.5,133.1,416.8,133.8,416,133.8z M402.4,125.1c-0.5,0-0.9,0.4-0.9,0.9v6.2c0,0.5,0.4,0.9,0.9,0.9H416c0.5,0,0.9-0.4,0.9-0.9
		V126c0-0.5-0.4-0.9-0.9-0.9H402.4z"/>
</g>
<g>
	<path fill="#99AABF" d="M396.9,133.8h-13.6c-0.9,0-1.5-0.7-1.5-1.5V126c0-0.9,0.7-1.5,1.5-1.5h13.6c0.9,0,1.5,0.7,1.5,1.5v6.2
		C398.5,133.1,397.8,133.8,396.9,133.8z M383.3,125.1c-0.5,0-0.9,0.4-0.9,0.9v6.2c0,0.5,0.4,0.9,0.9,0.9h13.6c0.5,0,0.9-0.4,0.9-0.9
		V126c0-0.5-0.4-0.9-0.9-0.9H383.3z"/>
</g>
<g>
	<path fill="#99AABF" d="M377.9,133.8h-13.6c-0.9,0-1.5-0.7-1.5-1.5V126c0-0.9,0.7-1.5,1.5-1.5h13.6c0.9,0,1.5,0.7,1.5,1.5v6.2
		C379.4,133.1,378.8,133.8,377.9,133.8z M364.3,125.1c-0.5,0-0.9,0.4-0.9,0.9v6.2c0,0.5,0.4,0.9,0.9,0.9h13.6c0.5,0,0.9-0.4,0.9-0.9
		V126c0-0.5-0.4-0.9-0.9-0.9H364.3z"/>
</g>
<g>
	<path fill="#99AABF" d="M358.9,133.8h-13.6c-0.9,0-1.5-0.7-1.5-1.5V126c0-0.9,0.7-1.5,1.5-1.5h13.6c0.9,0,1.5,0.7,1.5,1.5v6.2
		C360.4,133.1,359.7,133.8,358.9,133.8z M345.3,125.1c-0.5,0-0.9,0.4-0.9,0.9v6.2c0,0.5,0.4,0.9,0.9,0.9h13.6c0.5,0,0.9-0.4,0.9-0.9
		V126c0-0.5-0.4-0.9-0.9-0.9H345.3z"/>
</g>
<g>
	<path fill="#99AABF" d="M339.8,133.8h-13.6c-0.9,0-1.5-0.7-1.5-1.5V126c0-0.9,0.7-1.5,1.5-1.5h13.6c0.9,0,1.5,0.7,1.5,1.5v6.2
		C341.4,133.1,340.7,133.8,339.8,133.8z M326.2,125.1c-0.5,0-0.9,0.4-0.9,0.9v6.2c0,0.5,0.4,0.9,0.9,0.9h13.6c0.5,0,0.9-0.4,0.9-0.9
		V126c0-0.5-0.4-0.9-0.9-0.9H326.2z"/>
</g>
<g>
	<path fill="#99AABF" d="M320.8,133.8h-13.6c-0.9,0-1.5-0.7-1.5-1.5V126c0-0.9,0.7-1.5,1.5-1.5h13.6c0.9,0,1.5,0.7,1.5,1.5v6.2
		C322.4,133.1,321.7,133.8,320.8,133.8z M307.2,125.1c-0.5,0-0.9,0.4-0.9,0.9v6.2c0,0.5,0.4,0.9,0.9,0.9h13.6c0.5,0,0.9-0.4,0.9-0.9
		V126c0-0.5-0.4-0.9-0.9-0.9H307.2z"/>
</g>
<g>
	<path fill="#99AABF" d="M301.8,133.8h-13.6c-0.9,0-1.5-0.7-1.5-1.5V126c0-0.9,0.7-1.5,1.5-1.5h13.6c0.9,0,1.5,0.7,1.5,1.5v6.2
		C303.3,133.1,302.6,133.8,301.8,133.8z M288.2,125.1c-0.5,0-0.9,0.4-0.9,0.9v6.2c0,0.5,0.4,0.9,0.9,0.9h13.6c0.5,0,0.9-0.4,0.9-0.9
		V126c0-0.5-0.4-0.9-0.9-0.9H288.2z"/>
</g>
<g>
	<path fill="#99AABF" d="M282.8,133.8h-13.6c-0.9,0-1.5-0.7-1.5-1.5V126c0-0.9,0.7-1.5,1.5-1.5h13.6c0.9,0,1.5,0.7,1.5,1.5v6.2
		C284.3,133.1,283.6,133.8,282.8,133.8z M269.2,125.1c-0.5,0-0.9,0.4-0.9,0.9v6.2c0,0.5,0.4,0.9,0.9,0.9h13.6c0.5,0,0.9-0.4,0.9-0.9
		V126c0-0.5-0.4-0.9-0.9-0.9H269.2z"/>
</g>
<g>
	<rect x="496.7" y="215.4" fill="#99AABF" width="16.1" height="0.6"/>
</g>
<g>
	<polygon fill="#FFFFFF" points="299.1,95 261.7,95 231.5,17.9 274.8,17.9 	"/>
	<path fill="#92BDDD" d="M299.1,95.3C299.1,95.3,299.1,95.3,299.1,95.3h-37.4c-0.1,0-0.2-0.1-0.3-0.2L231.2,18c0-0.1,0-0.2,0-0.3
		c0.1-0.1,0.2-0.1,0.3-0.1h43.3c0.1,0,0.3,0.1,0.3,0.2l24.3,77.1c0,0,0.1,0.1,0.1,0.2C299.4,95.2,299.3,95.3,299.1,95.3z M262,94.7
		h36.7l-24.1-76.5h-42.6L262,94.7z"/>
</g>
<g>
	<path fill="#F9CDCD" d="M265.5,31.1c0.9,3.8-1.9,6.8-6.4,6.8c-4.5,0-8.8-3-9.8-6.8c-0.9-3.8,1.9-6.8,6.4-6.8S264.5,27.3,265.5,31.1
		z"/>
	<path fill="#DB9393" d="M259.1,38.2c-4.6,0-9.1-3.2-10.1-7c-0.4-1.7-0.1-3.4,0.9-4.7c1.2-1.6,3.3-2.5,5.8-2.5c4.6,0,9.1,3.2,10.1,7
		c0.4,1.7,0.1,3.4-0.9,4.7C263.6,37.3,261.5,38.2,259.1,38.2z M255.7,24.6c-2.2,0-4.2,0.8-5.3,2.2c-0.9,1.2-1.2,2.6-0.8,4.2
		c0.9,3.6,5.1,6.6,9.5,6.6c2.2,0,4.2-0.8,5.3-2.2c0.9-1.2,1.2-2.6,0.8-4.2C264.3,27.6,260,24.6,255.7,24.6z"/>
</g>
<g>
	<line fill="#FFFFFF" x1="270.6" y1="45.6" x2="253.7" y2="45.6"/>
	<path fill="#92BDDD" d="M270.6,45.9h-16.9c-0.2,0-0.3-0.1-0.3-0.3c0-0.2,0.1-0.3,0.3-0.3h16.9c0.2,0,0.3,0.1,0.3,0.3
		C270.9,45.7,270.8,45.9,270.6,45.9z"/>
</g>
<g>
	<line fill="#FFFFFF" x1="272.3" y1="50" x2="255.4" y2="50"/>
	<path fill="#92BDDD" d="M272.3,50.3h-16.9c-0.2,0-0.3-0.1-0.3-0.3c0-0.2,0.1-0.3,0.3-0.3h16.9c0.2,0,0.3,0.1,0.3,0.3
		C272.6,50.1,272.5,50.3,272.3,50.3z"/>
</g>
<g>
	<line fill="#FFFFFF" x1="274" y1="54.4" x2="257.1" y2="54.4"/>
	<path fill="#92BDDD" d="M274,54.7h-16.9c-0.2,0-0.3-0.1-0.3-0.3s0.1-0.3,0.3-0.3H274c0.2,0,0.3,0.1,0.3,0.3S274.2,54.7,274,54.7z"
		/>
</g>
<g>
	<line fill="#FFFFFF" x1="275.7" y1="58.8" x2="258.7" y2="58.8"/>
	<path fill="#92BDDD" d="M275.7,59.1h-16.9c-0.2,0-0.3-0.1-0.3-0.3s0.1-0.3,0.3-0.3h16.9c0.2,0,0.3,0.1,0.3,0.3
		S275.8,59.1,275.7,59.1z"/>
</g>
<g>
	<line fill="#FFFFFF" x1="277.4" y1="63.2" x2="260.4" y2="63.2"/>
	<path fill="#92BDDD" d="M277.4,63.5h-16.9c-0.2,0-0.3-0.1-0.3-0.3c0-0.2,0.1-0.3,0.3-0.3h16.9c0.2,0,0.3,0.1,0.3,0.3
		C277.7,63.4,277.5,63.5,277.4,63.5z"/>
</g>
<g>
	<line fill="#FFFFFF" x1="279" y1="67.6" x2="262.1" y2="67.6"/>
	<path fill="#92BDDD" d="M279,67.9h-16.9c-0.2,0-0.3-0.1-0.3-0.3s0.1-0.3,0.3-0.3H279c0.2,0,0.3,0.1,0.3,0.3S279.2,67.9,279,67.9z"
		/>
</g>
<g>
	<line fill="#FFFFFF" x1="280.7" y1="72.1" x2="263.8" y2="72.1"/>
	<path fill="#92BDDD" d="M280.7,72.4h-16.9c-0.2,0-0.3-0.1-0.3-0.3c0-0.2,0.1-0.3,0.3-0.3h16.9c0.2,0,0.3,0.1,0.3,0.3
		C281,72.2,280.9,72.4,280.7,72.4z"/>
</g>
<g>
	<line fill="#FFFFFF" x1="282.4" y1="76.5" x2="265.5" y2="76.5"/>
	<path fill="#92BDDD" d="M282.4,76.8h-16.9c-0.2,0-0.3-0.1-0.3-0.3s0.1-0.3,0.3-0.3h16.9c0.2,0,0.3,0.1,0.3,0.3
		S282.6,76.8,282.4,76.8z"/>
</g>
<g>
	<polygon fill="#FFFFFF" points="510,95 302.6,95 279.1,17.9 526.4,17.9 	"/>
	<path fill="#92BDDD" d="M510,95.3H302.6c-0.1,0-0.3-0.1-0.3-0.2L278.8,18c0-0.1,0-0.2,0-0.3c0.1-0.1,0.2-0.1,0.2-0.1h247.4
		c0.1,0,0.2,0,0.2,0.1c0.1,0.1,0.1,0.2,0.1,0.3l-16.5,77.1C510.2,95.2,510.1,95.3,510,95.3z M302.8,94.7h206.9l16.3-76.5H279.5
		L302.8,94.7z"/>
</g>
<g>
	<polygon fill="#CCE5FB" points="523.1,33.7 526.4,17.9 279.1,17.9 283.9,33.7 	"/>
	<path fill="#92BDDD" d="M523.1,34H283.9c-0.1,0-0.3-0.1-0.3-0.2L278.8,18c0-0.1,0-0.2,0-0.3c0.1-0.1,0.2-0.1,0.2-0.1h247.4
		c0.1,0,0.2,0,0.2,0.1c0.1,0.1,0.1,0.2,0.1,0.3l-3.4,15.8C523.3,33.9,523.2,34,523.1,34z M284.1,33.4h238.7l3.3-15.2H279.5
		L284.1,33.4z"/>
</g>
<g>
	<line fill="#CCE5FB" x1="314.8" y1="47.4" x2="305.2" y2="47.4"/>
	<path fill="#92BDDD" d="M314.8,47.7h-9.6c-0.2,0-0.3-0.1-0.3-0.3s0.1-0.3,0.3-0.3h9.6c0.2,0,0.3,0.1,0.3,0.3S315,47.7,314.8,47.7z"
		/>
</g>
<g>
	<line fill="#CCE5FB" x1="336.1" y1="47.4" x2="317.5" y2="47.4"/>
	<path fill="#92BDDD" d="M336.1,47.7h-18.5c-0.2,0-0.3-0.1-0.3-0.3s0.1-0.3,0.3-0.3h18.5c0.2,0,0.3,0.1,0.3,0.3
		S336.2,47.7,336.1,47.7z"/>
</g>
<g>
	<path fill="#F8CDF9" d="M299.9,43.2c0.5,2-0.7,3.6-2.7,3.6s-4-1.6-4.5-3.6c-0.5-2,0.7-3.6,2.7-3.6S299.4,41.2,299.9,43.2z"/>
	<path fill="#D693DB" d="M297.2,47.1c-2.1,0-4.3-1.7-4.8-3.8c-0.3-1.1-0.1-2.1,0.5-2.9c0.6-0.7,1.5-1.1,2.5-1.1
		c2.1,0,4.3,1.7,4.8,3.8c0.3,1.1,0.1,2.1-0.5,2.9C299.1,46.7,298.2,47.1,297.2,47.1z M295.4,39.9c-0.8,0-1.6,0.3-2,0.9
		c-0.5,0.6-0.6,1.4-0.4,2.3c0.4,1.9,2.3,3.4,4.2,3.4c0.8,0,1.6-0.3,2-0.9c0.5-0.6,0.6-1.4,0.4-2.3C299.2,41.4,297.3,39.9,295.4,39.9
		z"/>
</g>
<g>
	<path fill="#CDF9DF" d="M305,61.1c0.5,2-0.7,3.6-2.7,3.6s-4-1.6-4.5-3.6c-0.5-2,0.7-3.6,2.7-3.6S304.5,59.2,305,61.1z"/>
	<path fill="#93DB93" d="M302.3,65.1c-2.1,0-4.3-1.7-4.8-3.8c-0.3-1.1-0.1-2.1,0.5-2.9c0.6-0.7,1.5-1.1,2.5-1.1
		c2.1,0,4.3,1.7,4.8,3.8c0.3,1.1,0.1,2.1-0.5,2.9C304.2,64.7,303.3,65.1,302.3,65.1z M300.5,57.8c-0.8,0-1.6,0.3-2,0.9
		c-0.5,0.6-0.6,1.4-0.4,2.3c0.4,1.9,2.3,3.4,4.2,3.4c0.8,0,1.6-0.3,2-0.9c0.5-0.6,0.6-1.4,0.4-2.3C304.3,59.4,302.4,57.8,300.5,57.8
		z"/>
</g>
<g>
	<path fill="#F9CDDD" d="M310.1,78.5c0.5,2-0.7,3.6-2.7,3.6s-4-1.6-4.5-3.6c-0.5-2,0.7-3.6,2.7-3.6S309.6,76.5,310.1,78.5z"/>
	<path fill="#DB93B0" d="M307.4,82.4c-2.1,0-4.3-1.7-4.8-3.8c-0.3-1.1-0.1-2.1,0.5-2.9c0.6-0.7,1.5-1.1,2.5-1.1
		c2.1,0,4.3,1.7,4.8,3.8c0.3,1.1,0.1,2.1-0.5,2.9C309.3,82,308.4,82.4,307.4,82.4z M305.6,75.2c-0.8,0-1.6,0.3-2,0.9
		c-0.5,0.6-0.6,1.4-0.4,2.3c0.4,1.9,2.3,3.4,4.2,3.4c0.8,0,1.6-0.3,2-0.9c0.5-0.6,0.6-1.4,0.4-2.3C309.4,76.7,307.5,75.2,305.6,75.2
		z"/>
</g>
<g>
	<polygon fill="#CCE5FB" points="373.1,43.6 304.4,43.6 303.7,40 372.5,40 	"/>
	<path fill="#92BDDD" d="M373.1,43.9C373.1,43.9,373.1,43.9,373.1,43.9h-68.8c-0.2,0-0.3-0.1-0.3-0.3l-0.6-3.7c0-0.1,0-0.2,0.1-0.3
		c0.1-0.1,0.1-0.1,0.2-0.1h68.8c0.2,0,0.3,0.1,0.3,0.3l0.6,3.6c0,0,0,0.1,0,0.1C373.4,43.8,373.3,43.9,373.1,43.9z M304.6,43.3h68.1
		l-0.5-3h-68.1L304.6,43.3z"/>
</g>
<g>
	<line fill="#CCE5FB" x1="329.1" y1="65.3" x2="311.4" y2="65.3"/>
	<path fill="#92BDDD" d="M329.1,65.6h-17.7c-0.2,0-0.3-0.1-0.3-0.3s0.1-0.3,0.3-0.3h17.7c0.2,0,0.3,0.1,0.3,0.3
		S329.2,65.6,329.1,65.6z"/>
</g>
<g>
	<line fill="#CCE5FB" x1="342.3" y1="65.3" x2="331.8" y2="65.3"/>
	<path fill="#92BDDD" d="M342.3,65.6h-10.5c-0.2,0-0.3-0.1-0.3-0.3s0.1-0.3,0.3-0.3h10.5c0.2,0,0.3,0.1,0.3,0.3
		S342.4,65.6,342.3,65.6z"/>
</g>
<g>
	<polygon fill="#CCE5FB" points="366.3,61.5 310.5,61.5 309.9,57.9 365.7,57.9 	"/>
	<path fill="#92BDDD" d="M366.3,61.8C366.3,61.8,366.3,61.8,366.3,61.8h-55.8c-0.2,0-0.3-0.1-0.3-0.3l-0.6-3.7c0-0.1,0-0.2,0.1-0.3
		c0.1-0.1,0.1-0.1,0.2-0.1h55.8c0.2,0,0.3,0.1,0.3,0.3l0.6,3.6c0,0,0,0.1,0,0.1C366.6,61.7,366.5,61.8,366.3,61.8z M310.8,61.2h55.1
		l-0.5-3h-55.1L310.8,61.2z"/>
</g>
<g>
	<line fill="#CCE5FB" x1="323.5" y1="82.6" x2="316.3" y2="82.6"/>
	<path fill="#92BDDD" d="M323.5,82.9h-7.2c-0.2,0-0.3-0.1-0.3-0.3c0-0.2,0.1-0.3,0.3-0.3h7.2c0.2,0,0.3,0.1,0.3,0.3
		C323.8,82.8,323.7,82.9,323.5,82.9z"/>
</g>
<g>
	<line fill="#CCE5FB" x1="356.5" y1="82.6" x2="326.2" y2="82.6"/>
	<path fill="#92BDDD" d="M356.5,82.9h-30.3c-0.2,0-0.3-0.1-0.3-0.3c0-0.2,0.1-0.3,0.3-0.3h30.3c0.2,0,0.3,0.1,0.3,0.3
		C356.8,82.8,356.7,82.9,356.5,82.9z"/>
</g>
<g>
	<polygon fill="#CCE5FB" points="378.1,78.9 315.5,78.9 314.9,75.2 377.4,75.2 	"/>
	<path fill="#92BDDD" d="M378.1,79.2C378.1,79.2,378.1,79.2,378.1,79.2h-62.6c-0.2,0-0.3-0.1-0.3-0.3l-0.6-3.7c0-0.1,0-0.2,0.1-0.3
		c0.1-0.1,0.1-0.1,0.2-0.1h62.6c0.2,0,0.3,0.1,0.3,0.3l0.6,3.6c0,0,0,0.1,0,0.1C378.4,79,378.2,79.2,378.1,79.2z M315.7,78.5h61.9
		l-0.5-3h-61.9L315.7,78.5z"/>
</g>
<g>
	
		<rect x="90.5" y="179.5" transform="matrix(0.9659 -0.2588 0.2588 0.9659 -43.0568 35.8694)" fill="#CCE5FB" width="48.5" height="4"/>
	<path fill="#92BDDD" d="M91.6,190l-1.2-4.4l47.4-12.7l1.2,4.4L91.6,190z M91.2,186l0.9,3.2l46.2-12.4l-0.9-3.2L91.2,186z"/>
</g>
<g>
	
		<rect x="96.8" y="188.4" transform="matrix(0.2588 0.9659 -0.9659 0.2588 257.9745 48.9128)" fill="#92BDDD" width="0.6" height="8.4"/>
</g>
<g>
	
		<rect x="113.5" y="178.6" transform="matrix(0.2588 0.9659 -0.9659 0.2588 266.0389 29.4437)" fill="#92BDDD" width="0.6" height="18.9"/>
</g>
<g>
	
		<rect x="95.6" y="198.7" transform="matrix(0.9659 -0.2588 0.2588 0.9659 -48.044 36.5194)" fill="#CCE5FB" width="38.2" height="4"/>
	<path fill="#92BDDD" d="M96.5,208l-1.2-4.4l37.5-10l1.2,4.4L96.5,208z M96.1,204l0.9,3.2l36.3-9.7l-0.9-3.2L96.1,204z"/>
</g>
<g>
	
		<rect x="104" y="203.4" transform="matrix(0.2588 0.9659 -0.9659 0.2588 280.0494 54.8144)" fill="#92BDDD" width="0.6" height="13"/>
</g>
<g>
	
		<rect x="123" y="197.8" transform="matrix(0.2588 0.9659 -0.9659 0.2588 289.2123 32.7208)" fill="#92BDDD" width="0.6" height="14"/>
</g>
<g>
	
		<rect x="100.5" y="216.7" transform="matrix(0.9659 -0.2588 0.2588 0.9659 -52.517 38.4109)" fill="#CCE5FB" width="38.2" height="4"/>
	<path fill="#92BDDD" d="M101.5,225.9l-1.2-4.4l0.3-0.1l37.2-10l1.2,4.4l-0.3,0.1L101.5,225.9z M101.1,221.9l0.9,3.2l36.3-9.7
		l-0.9-3.2L101.1,221.9z"/>
</g>
<g>
	
		<rect x="107.7" y="222.9" transform="matrix(0.2586 0.966 -0.966 0.2586 300.4804 64.8218)" fill="#92BDDD" width="0.6" height="10.5"/>
</g>
<g>
	
		<rect x="126.4" y="214.5" transform="matrix(0.2586 0.966 -0.966 0.2586 309.4893 43.1072)" fill="#92BDDD" width="0.6" height="17.3"/>
</g>
<g>
	
		<rect x="105.5" y="234.6" transform="matrix(0.9659 -0.2588 0.2588 0.9659 -56.99 40.3024)" fill="#CCE5FB" width="38.2" height="4"/>
	<path fill="#92BDDD" d="M106.4,243.8l-1.2-4.4l0.3-0.1l37.2-10l1.2,4.4l-0.3,0.1L106.4,243.8z M106,239.8l0.9,3.2l36.3-9.7
		l-0.9-3.2L106,239.8z"/>
</g>
<g>
	
		<rect x="112.2" y="241.4" transform="matrix(0.2586 0.966 -0.966 0.2586 321.2745 73.816)" fill="#92BDDD" width="0.6" height="9.6"/>
</g>
<g>
	
		<rect x="126.4" y="237.2" transform="matrix(0.2586 0.966 -0.966 0.2586 328.1331 57.2841)" fill="#92BDDD" width="0.6" height="10.5"/>
</g>
<g>
	
		<rect x="137.5" y="237.2" transform="matrix(0.2586 0.966 -0.966 0.2586 333.4519 44.4644)" fill="#92BDDD" width="0.6" height="4.6"/>
</g>
<g>
	
		<rect x="110.4" y="252.5" transform="matrix(0.9659 -0.2588 0.2588 0.9659 -61.463 42.1939)" fill="#CCE5FB" width="38.2" height="4"/>
	<path fill="#92BDDD" d="M111.4,261.8l-1.2-4.4l0.3-0.1l37.2-10l1.2,4.4l-0.3,0.1L111.4,261.8z M110.9,257.8l0.9,3.2l36.3-9.7
		l-0.9-3.2L110.9,257.8z"/>
</g>
<g>
	
		<rect x="123.4" y="251.3" transform="matrix(0.2586 0.966 -0.966 0.2586 345.2527 75.1348)" fill="#92BDDD" width="0.6" height="22.4"/>
</g>
<g>
	
		<rect x="141.3" y="254.2" transform="matrix(0.2586 0.966 -0.966 0.2586 353.8991 54.294)" fill="#92BDDD" width="0.6" height="6.9"/>
</g>
<g>
	<polygon fill="#CCE5FB" points="654.7,169.4 599.6,159.6 602,146.3 657.1,156.2 	"/>
	<path fill="#92BDDD" d="M655,169.8l-55.7-10l2.5-13.9l55.7,10L655,169.8z M600,159.3l54.5,9.7l2.3-12.6l-54.5-9.7L600,159.3z"/>
</g>
<path opacity="0.1" fill="#5D707C" d="M620.4,300.1c1.2-1.1,1.5-2.9,0.5-4.2c-0.2-0.3-0.4-0.5-0.7-0.7c0.2,1.1-0.1,2.2-1,3l1.1,1.5
	l-91.6,68.5l-1-1.4l-1.5,1.1l-7.1,2.7l-2.5,3.3l10.8-4.1l1.5-1.1l1,1.4l91.5-68.4l0.2-0.1L620.4,300.1z"/>
<rect x="571.8" y="275.7" transform="matrix(-0.5988 -0.8009 0.8009 -0.5988 650.3149 991.2632)" fill="#EEF0F2" width="3.2" height="114.2"/>
<g>
	<path fill="#99AABF" d="M513.9,373.2l8.1-10.7l1.1-0.8l-1-1.4l0.4-0.3l92-68.8l1.1,1.5c0.5-0.2,1-0.4,1.6-0.4
		c1.1,0,2.2,0.5,2.9,1.4c1,1.4,0.9,3.3-0.2,4.5l1.1,1.5l-0.4,0.3l-92,68.8l-1-1.4l-1.2,0.9L513.9,373.2z M522.7,363.2l-5.9,7.8
		l9.1-3.5l1.8-1.4l1,1.4l90.8-67.9l-1.1-1.4l0.4-0.3c1-0.9,1.2-2.4,0.4-3.5c-0.5-0.7-1.2-1-2.1-1c-0.5,0-1,0.1-1.4,0.4l-0.4,0.3
		l-1.1-1.4l-90.8,67.9l1,1.4L522.7,363.2z"/>
</g>
<g>
	
		<rect x="520.8" y="363.8" transform="matrix(0.5988 0.8009 -0.8009 0.5988 502.6742 -274.8939)" fill="#99AABF" width="9.8" height="1"/>
</g>
<g>
	
		<rect x="517.4" y="368.8" transform="matrix(0.5988 0.8009 -0.8009 0.5988 503.943 -267.4626)" fill="#99AABF" width="3.1" height="1"/>
</g>
<g>
	
		<rect x="612.4" y="295.3" transform="matrix(0.5988 0.8009 -0.8009 0.5988 484.5645 -375.7571)" fill="#99AABF" width="9.8" height="1"/>
</g>
<g>
	
		<rect x="586.5" y="315.1" transform="matrix(0.5988 0.8009 -0.8009 0.5988 489.8794 -347.0641)" fill="#99AABF" width="9.8" height="0.6"/>
</g>
</svg>
